<svg xmlns="http://www.w3.org/2000/svg" width="110.252" height="125.453" viewBox="0 0 110.252 125.453">
  <g id="accessibility" transform="translate(-86.943 -94.77)">
    <g id="Group_12493" data-name="Group 12493" transform="translate(86.943 94.77)">
      <path id="Path_10736" data-name="Path 10736" d="M118.551,191.234c-.341.775-.717,1.612-1.046,2.43s-.67,1.659-.969,2.5a35.4,35.4,0,0,0-1.469,5.01l-.112.62-.039.232a.8.8,0,0,1-.023.229,9.506,9.506,0,0,0,.023,1.132,22.825,22.825,0,0,0,.388,2.569c.325,1.755.74,3.565,1.162,5.348l-1.988.775a35.9,35.9,0,0,1-2.36-5.266,22.089,22.089,0,0,1-.822-2.895,10.39,10.39,0,0,1-.217-1.651v-.469a2.318,2.318,0,0,1,.027-.461l.077-.775a24.413,24.413,0,0,1,.531-2.964c.217-.969.5-1.91.775-2.84s.628-1.844,1-2.743c.182-.45.388-.9.566-1.341a14.846,14.846,0,0,1,.635-1.349Z" transform="translate(-101.727 -152.682)" fill="#e4897b"/>
      <path id="Path_10737" data-name="Path 10737" d="M121.191,244.69l1.511,1.476-3.3,1.55a3.317,3.317,0,0,1-.244-2.662Z" transform="translate(-106.556 -186.596)" fill="#e4897b"/>
      <path id="Path_10738" data-name="Path 10738" d="M124.624,250.7l-2.786,1.139-1.728-1.8L123.4,248.5l1.221,2.2Z" transform="translate(-107.258 -188.93)" fill="#e4897b"/>
      <path id="Path_10739" data-name="Path 10739" d="M238.227,162.142a27.9,27.9,0,1,1,30.841-24.633A27.9,27.9,0,0,1,238.227,162.142Z" transform="translate(-164.42 -101.963)" fill="#fafafa" opacity="0.4"/>
      <path id="Path_10740" data-name="Path 10740" d="M258.716,114.71l-42.431,33.9c-.178-.387-.353-.775-.515-1.162a27.606,27.606,0,0,1-2.019-7.936L250.4,110.23A27.571,27.571,0,0,1,258.716,114.71Z" transform="translate(-164.612 -104.239)" fill="#fafafa" opacity="0.4"/>
      <path id="Path_10741" data-name="Path 10741" d="M276.832,142.449l-39.893,31.872a27.845,27.845,0,0,1-9.6-8.246L270.9,131.27A27.9,27.9,0,0,1,276.832,142.449Z" transform="translate(-172.936 -117.126)" fill="#fafafa" opacity="0.4"/>
      <path id="Path_10742" data-name="Path 10742" d="M203.808,118.293l-.368-.124a33.976,33.976,0,0,1,2.395-5.444l.337.186A33.685,33.685,0,0,0,203.808,118.293Zm4.7-9.044-.314-.229a33.6,33.6,0,0,1,12.156-10.156l.174.349a33.225,33.225,0,0,0-12.016,10.048Zm42.466-9.505a32.4,32.4,0,0,0-3.922-1.779l.139-.364a33.177,33.177,0,0,1,3.96,1.814Z" transform="translate(-158.297 -96.504)" fill="#fa4a0c"/>
      <path id="Path_10743" data-name="Path 10743" d="M203.808,118.293l-.368-.124a33.976,33.976,0,0,1,2.395-5.444l.337.186A33.685,33.685,0,0,0,203.808,118.293Zm4.7-9.044-.314-.229a33.6,33.6,0,0,1,12.156-10.156l.174.349a33.225,33.225,0,0,0-12.016,10.048Zm42.466-9.505a32.4,32.4,0,0,0-3.922-1.779l.139-.364a33.177,33.177,0,0,1,3.96,1.814Z" transform="translate(-158.297 -96.504)" fill="#fa4a0c" opacity="0.3"/>
      <path id="Path_10744" data-name="Path 10744" d="M204.737,112.971a32.163,32.163,0,0,0-59.152,25.083c-2.589.907-5.146,1.879-7.688,2.883q-5.5,2.182-10.9,4.557c-3.6,1.593-7.176,3.216-10.722,4.914-1.779.833-3.534,1.713-5.3,2.565a7.669,7.669,0,0,0-2.457,1.686,7.421,7.421,0,0,0-1,1.306,6.685,6.685,0,0,0-.775,1.794,4.929,4.929,0,0,0,2.84,5.754,6.805,6.805,0,0,0,1.883.488,7.316,7.316,0,0,0,1.647,0,7.657,7.657,0,0,0,2.829-.926c1.755-.887,3.522-1.744,5.266-2.654,3.488-1.779,6.975-3.635,10.42-5.518s6.894-3.856,10.257-5.878c2.325-1.407,4.673-2.844,6.975-4.348a32.163,32.163,0,0,0,55.882-31.705Zm-17.616,37.018a25.393,25.393,0,1,1,11.528-34.015,25.393,25.393,0,0,1-11.528,34.015Z" transform="translate(-98.978 -94.77)" fill="#407bff"/>
      <path id="Path_10745" data-name="Path 10745" d="M204.737,112.971a32.163,32.163,0,0,0-59.152,25.083c-2.589.907-5.146,1.879-7.688,2.883q-5.5,2.182-10.9,4.557c-3.6,1.593-7.176,3.216-10.722,4.914-1.779.833-3.534,1.713-5.3,2.565a7.669,7.669,0,0,0-2.457,1.686,7.421,7.421,0,0,0-1,1.306,6.685,6.685,0,0,0-.775,1.794,4.929,4.929,0,0,0,2.84,5.754,6.805,6.805,0,0,0,1.883.488,7.316,7.316,0,0,0,1.647,0,7.657,7.657,0,0,0,2.829-.926c1.755-.887,3.522-1.744,5.266-2.654,3.488-1.779,6.975-3.635,10.42-5.518s6.894-3.856,10.257-5.878c2.325-1.407,4.673-2.844,6.975-4.348a32.163,32.163,0,0,0,55.882-31.705Zm-17.616,37.018a25.393,25.393,0,1,1,11.528-34.015,25.393,25.393,0,0,1-11.528,34.015Z" transform="translate(-98.978 -94.77)" fill="#fa4a0c"/>
      <path id="Path_10746" data-name="Path 10746" d="M158,157.895c0,.229.12.415.271.415s.271-.186.271-.415-.12-.415-.271-.415S158,157.681,158,157.895Z" transform="translate(-130.465 -133.18)" fill="#263238"/>
      <path id="Path_10747" data-name="Path 10747" d="M158.28,159.62a8.266,8.266,0,0,0,1.1,1.965,1.321,1.321,0,0,1-1.1.205Z" transform="translate(-130.637 -134.491)" fill="#de5753"/>
      <path id="Path_10748" data-name="Path 10748" d="M155.714,154.447a.143.143,0,0,1-.112-.054.139.139,0,0,1,.031-.19,1.329,1.329,0,0,1,1.213-.205.136.136,0,1,1-.1.252,1.058,1.058,0,0,0-.957.174.139.139,0,0,1-.077.023Z" transform="translate(-128.981 -131.007)" fill="#263238"/>
      <path id="Path_10749" data-name="Path 10749" d="M136.783,163c.387,2.081.814,5.9-.643,7.289,0,0,.57,2.112,4.441,2.112,4.262,0,2.031-2.112,2.031-2.112-2.325-.558-2.259-2.279-1.856-3.9Z" transform="translate(-117.076 -136.561)" fill="#e4897b"/>
      <path id="Path_10750" data-name="Path 10750" d="M131.154,179.884c.461-.717-.314-2.457-.314-2.457s6.851-1.724,9.653.922c.581.546-.062,1.352-.062,1.352Z" transform="translate(-114.059 -145.06)" fill="#fa4a0c"/>
      <path id="Path_10751" data-name="Path 10751" d="M131.154,179.884c.461-.717-.314-2.457-.314-2.457s6.851-1.724,9.653.922c.581.546-.062,1.352-.062,1.352Z" transform="translate(-114.059 -145.06)" opacity="0.02"/>
      <path id="Path_10752" data-name="Path 10752" d="M100.63,387.194c-.36,0-.938-.6-1.108-.825a.066.066,0,0,1,0-.074.07.07,0,0,1,.062-.035c.043,0,.992.085,1.252.422a.314.314,0,0,1,.062.256.279.279,0,0,1-.2.252Zm-.9-.775c.283.326.736.694.93.647,0,0,.077-.019.1-.143a.174.174,0,0,0-.039-.147,1.809,1.809,0,0,0-.992-.364Z" transform="translate(-94.641 -273.307)" fill="#407bff"/>
      <path id="Path_10753" data-name="Path 10753" d="M99.76,385.5a1.038,1.038,0,0,1-.209,0,.062.062,0,0,1-.054-.043.077.077,0,0,1,0-.07c.027-.023.6-.616,1.027-.616a.364.364,0,0,1,.275.116.221.221,0,0,1,.054.271c-.112.217-.705.341-1.093.341Zm-.05-.136c.388,0,.949-.12,1.042-.291,0,0,.027-.05-.035-.112a.229.229,0,0,0-.178-.074A1.639,1.639,0,0,0,99.71,385.363Z" transform="translate(-94.627 -272.395)" fill="#407bff"/>
      <path id="Path_10754" data-name="Path 10754" d="M166.925,410.273a5.136,5.136,0,0,1-.876-.081.062.062,0,0,1-.05-.062.07.07,0,0,1,.031-.07c.043-.023,1.035-.593,1.511-.461a.333.333,0,0,1,.213.155.256.256,0,0,1,0,.295C167.642,410.223,167.289,410.273,166.925,410.273Zm-.655-.182c.527.078,1.248.074,1.38-.112.019-.023.035-.066,0-.147a.217.217,0,0,0-.132-.1A2.431,2.431,0,0,0,166.27,410.091Z" transform="translate(-135.364 -287.59)" fill="#407bff"/>
      <path id="Path_10755" data-name="Path 10755" d="M166.063,409.147a.07.07,0,0,1-.039,0,.062.062,0,0,1-.027-.066,1.891,1.891,0,0,1,.442-1.1.484.484,0,0,1,.387-.112.223.223,0,0,1,.252.186c.05.322-.628.938-.973,1.093Zm.694-1.163a.353.353,0,0,0-.233.085,1.55,1.55,0,0,0-.387.88c.349-.213.814-.694.775-.887,0,0,0-.066-.132-.078Z" transform="translate(-135.363 -286.541)" fill="#407bff"/>
      <path id="Path_10756" data-name="Path 10756" d="M158.09,400.571h2.848l.283-6.591h-2.848Z" transform="translate(-130.52 -278.036)" fill="#e4897b"/>
      <path id="Path_10757" data-name="Path 10757" d="M92.64,374.771l2.379,1.558,5.255-4.437-2.383-1.562Z" transform="translate(-90.432 -263.55)" fill="#e4897b"/>
      <path id="Path_10758" data-name="Path 10758" d="M91.921,382.139l-2.472-2.027a.244.244,0,0,0-.31,0l-2.038,1.6a.418.418,0,0,0,0,.655c.876.694,1.337.988,2.426,1.879.67.546,2.325,2.22,3.259,2.976s1.79-.058,1.48-.45a9.763,9.763,0,0,1-2.1-4.2A.7.7,0,0,0,91.921,382.139Z" transform="translate(-86.943 -269.508)" fill="#263238"/>
      <path id="Path_10759" data-name="Path 10759" d="M159.2,410.14h-3.1a.252.252,0,0,0-.244.194l-.562,2.53a.415.415,0,0,0,.411.508c1.12-.019,2.74-.085,4.15-.085,1.647,0,3.073.089,5,.089,1.162,0,1.5-1.182,1-1.286-2.224-.488-4.046-.539-5.968-1.728A1.333,1.333,0,0,0,159.2,410.14Z" transform="translate(-128.801 -287.934)" fill="#263238"/>
      <path id="Path_10760" data-name="Path 10760" d="M115.535,183.5c-2.468,1.163-3.875,8.951-3.875,8.951l6.033,2.406a44.885,44.885,0,0,0,2.135-6.646c.829-3.588-1.767-5.913-4.294-4.712Z" transform="translate(-102.082 -148.919)" fill="#263238"/>
      <path id="Path_10761" data-name="Path 10761" d="M126.012,194.812c-1.492,1.511-2.174,4.472-2.472,6.4l1.445.577a45.22,45.22,0,0,0,2.092-6.452C126.95,194.514,126.632,194.185,126.012,194.812Z" transform="translate(-109.358 -155.845)" fill="#203048"/>
      <path id="Path_10762" data-name="Path 10762" d="M138.936,182.465s3.03,3.426.171,24.606H123.881c-.1-2.325,1.364-13.737-.891-24.75a38.97,38.97,0,0,1,5.1-.643,54.586,54.586,0,0,1,6.471,0,28.751,28.751,0,0,1,4.379.787Z" transform="translate(-109.022 -147.943)" fill="#263238"/>
      <path id="Path_10763" data-name="Path 10763" d="M162.689,198.091l-2.565-4.421a22.6,22.6,0,0,0-.6,6.3c.07,1.519,1.461,7.146,2.713,7.967A89.454,89.454,0,0,0,162.689,198.091Z" transform="translate(-131.383 -155.346)" fill="#203048"/>
      <path id="Path_10764" data-name="Path 10764" d="M161.962,191.67c.387,1.883.775,3.813,1.19,5.7S164,201.164,164.5,203c.128.453.248.918.387,1.352l.1.333.05.167v-.019c-.027-.035-.058-.039-.035,0a1.3,1.3,0,0,0,.589.368,6.916,6.916,0,0,0,1.128.314,30.143,30.143,0,0,0,5.541.36l.368,2.108c-.519.167-1,.287-1.515.407s-1.015.221-1.531.3a16.558,16.558,0,0,1-3.228.217,8.762,8.762,0,0,1-1.783-.232,5.188,5.188,0,0,1-2.046-.949,3.739,3.739,0,0,1-.957-1.162c-.062-.116-.116-.248-.167-.36l-.07-.182-.143-.387c-.2-.492-.36-.977-.539-1.461-.655-1.938-1.2-3.894-1.682-5.847s-.9-3.9-1.24-5.906Z" transform="translate(-130.3 -154.121)" fill="#e4897b"/>
      <path id="Path_10765" data-name="Path 10765" d="M154.129,185.667c-.8,2.6,2.449,10.354,2.449,10.354l6.475-1.628a23.456,23.456,0,0,0-1.724-7.227c-2.224-4.821-6.239-4.619-7.2-1.5Z" transform="translate(-128.016 -149.068)" fill="#263238"/>
      <path id="Path_10766" data-name="Path 10766" d="M192.162,228.191l3.224-.081-1.55,3.356s-1.314.174-2.391-1.6l-1.135-1.356,1.306-.26A2.913,2.913,0,0,1,192.162,228.191Z" transform="translate(-150.255 -176.441)" fill="#e4897b"/>
      <path id="Path_10767" data-name="Path 10767" d="M202.994,228.734l-1.844,2.782-1.74-.05,1.55-3.356Z" transform="translate(-155.829 -176.441)" fill="#e4897b"/>
      <path id="Path_10768" data-name="Path 10768" d="M161.435,393.98l-.147,3.4H158.44l.147-3.4Z" transform="translate(-130.735 -278.036)" fill="#ce6f64"/>
      <path id="Path_10769" data-name="Path 10769" d="M101.909,370.33l2.383,1.562-2.713,2.286L99.2,372.62Z" transform="translate(-94.45 -263.55)" fill="#ce6f64"/>
      <path id="Path_10770" data-name="Path 10770" d="M138.246,150.74c.17,2.817.128,4.48,1.55,5.925a3.751,3.751,0,0,0,6.3-1.937c.608-2.534.229-6.719-2.53-7.843a3.875,3.875,0,0,0-5.316,3.856Z" transform="translate(-118.36 -126.518)" fill="#e4897b"/>
      <path id="Path_10771" data-name="Path 10771" d="M129.56,145.225c.7,2.569,2.352,5.53,4.487,5.72,2.65.232,3.848-2.507,4.2-5.336,1.589-1.089.756-2.286,2.348-2.437,2.046-.194,1.391-3.937-1.3-4.538,0,0,.9,1.686-.992.833a10.935,10.935,0,0,0-5.789-1s2.418,1.209.054,1.748-3.069,2-1.98,2.875a1.643,1.643,0,0,0-1.023,2.139Z" transform="translate(-112.991 -121.498)" fill="#263238"/>
      <path id="Path_10772" data-name="Path 10772" d="M147.935,156.611a3.185,3.185,0,0,0,.8,1.887c.62.686,1.267.26,1.376-.574.1-.748-.1-2.007-.864-2.387S147.885,155.766,147.935,156.611Z" transform="translate(-124.299 -131.919)" fill="#e4897b"/>
      <path id="Path_10773" data-name="Path 10773" d="M118.061,247.354s2.775,20.092.589,28.144c-3.464,12.749-16.709,23.51-16.709,23.51l-4.491-2.945s11.28-9.087,12.66-19.763c1.24-9.583-1.872-21.173-1.872-28.95Z" transform="translate(-93.378 -188.225)" fill="#fca485"/>
      <path id="Path_10774" data-name="Path 10774" d="M118.061,247.354s2.775,20.092.589,28.144c-3.464,12.749-16.709,23.51-16.709,23.51l-4.491-2.945s11.28-9.087,12.66-19.763c1.24-9.583-1.872-21.173-1.872-28.95Z" transform="translate(-93.378 -188.225)" opacity="0.02"/>
      <path id="Path_10775" data-name="Path 10775" d="M149.76,273.325A18.754,18.754,0,0,0,147.33,271a194.933,194.933,0,0,1,.43,23.045,29.607,29.607,0,0,0,1.442-4.057C150.267,286.054,150.155,279.262,149.76,273.325Z" transform="translate(-123.93 -202.711)" fill="#fa4a0c"/>
      <path id="Path_10776" data-name="Path 10776" d="M149.76,273.325A18.754,18.754,0,0,0,147.33,271a194.933,194.933,0,0,1,.43,23.045,29.607,29.607,0,0,0,1.442-4.057C150.267,286.054,150.155,279.262,149.76,273.325Z" transform="translate(-123.93 -202.711)" opacity="0.1"/>
      <path id="Path_10777" data-name="Path 10777" d="M103.206,372.8c.019,0-1.74,1.162-1.74,1.162l-4.906-3.216,1.55-1.283Z" transform="translate(-92.833 -263.017)" fill="#fa4a0c"/>
      <path id="Path_10778" data-name="Path 10778" d="M103.206,372.8c.019,0-1.74,1.162-1.74,1.162l-4.906-3.216,1.55-1.283Z" transform="translate(-92.833 -263.017)" opacity="0.02"/>
      <path id="Path_10779" data-name="Path 10779" d="M148.759,247.36s4.286,18.174,4.588,26.858c.341,9.734-3.057,32.7-3.057,32.7h-4.824s-.593-23.142-.806-32.008c-.236-9.668-5.909-27.547-5.909-27.547Z" transform="translate(-118.675 -188.231)" fill="#fca485"/>
      <path id="Path_10780" data-name="Path 10780" d="M148.759,247.36s4.286,18.174,4.588,26.858c.341,9.734-3.057,32.7-3.057,32.7h-4.824s-.593-23.142-.806-32.008c-.236-9.668-5.909-27.547-5.909-27.547Z" transform="translate(-118.675 -188.231)" opacity="0.02"/>
      <path id="Path_10781" data-name="Path 10781" d="M160.967,396.1c.023,0-.271,2-.271,2h-5.867l-.159-1.786Z" transform="translate(-128.426 -279.334)" fill="#fa4a0c"/>
      <path id="Path_10782" data-name="Path 10782" d="M160.967,396.1c.023,0-.271,2-.271,2h-5.867l-.159-1.786Z" transform="translate(-128.426 -279.334)" opacity="0.02"/>
    </g>
    <g id="Character" transform="translate(170.913 119.022)">
      <path id="Path_10783" data-name="Path 10783" d="M352.791,202.29c.329.31.589.574.86.868s.527.581.775.88c.5.593.977,1.217,1.434,1.845a29.553,29.553,0,0,1,2.43,3.976l.143.283a2.735,2.735,0,0,1,.174.426,3.535,3.535,0,0,1,.17.876,4.262,4.262,0,0,1-.213,1.55,7.813,7.813,0,0,1-1.244,2.294,16.539,16.539,0,0,1-3.41,3.278l-.965-1.108c.453-.531.926-1.1,1.349-1.67a14.246,14.246,0,0,0,1.163-1.744,6.057,6.057,0,0,0,.705-1.713,1.776,1.776,0,0,0,.027-.659.858.858,0,0,0-.07-.213.614.614,0,0,0-.05-.085l-.124-.209a40.711,40.711,0,0,0-2.43-3.53c-.43-.57-.891-1.116-1.356-1.655-.229-.271-.465-.535-.7-.8s-.492-.527-.7-.732Z" transform="translate(-332.501 -184.878)" fill="#e4897b"/>
      <path id="Path_10784" data-name="Path 10784" d="M352.785,239.843l-2.895-.473,1.515,2.534s1.864-.066,2.395-1.163Z" transform="translate(-331.968 -207.589)" fill="#e4897b"/>
      <path id="Path_10785" data-name="Path 10785" d="M344.37,240.54l1.38,2.058,2.275-.694-1.515-2.534-2.139,1.17Z" transform="translate(-328.587 -207.589)" fill="#e4897b"/>
      <path id="Path_10786" data-name="Path 10786" d="M355.932,410.119a.833.833,0,0,1-.554-.151.387.387,0,0,1-.112-.364.229.229,0,0,1,.136-.194c.337-.151,1.221.415,1.321.481a.07.07,0,0,1-.023.124A3.43,3.43,0,0,1,355.932,410.119Zm-.388-.6a.277.277,0,0,0-.085,0,.1.1,0,0,0-.058.089.26.26,0,0,0,.07.244,1.394,1.394,0,0,0,1.035.05,2.552,2.552,0,0,0-.961-.384Z" transform="translate(-335.255 -311.723)" fill="#407bff"/>
      <path id="Path_10787" data-name="Path 10787" d="M357.766,408.93h-.035c-.275-.159-.806-.775-.74-1.112a.252.252,0,0,1,.233-.194.349.349,0,0,1,.291.093c.318.279.322,1.116.322,1.162a.074.074,0,0,1-.035.058Zm-.5-1.162h-.031c-.085,0-.1.047-.112.081-.039.2.291.67.566.891a1.584,1.584,0,0,0-.267-.914.221.221,0,0,0-.174-.058Z" transform="translate(-336.314 -310.643)" fill="#407bff"/>
      <path id="Path_10788" data-name="Path 10788" d="M321.605,410.118a1.073,1.073,0,0,1-.7-.178.387.387,0,0,1-.128-.333.225.225,0,0,1,.116-.182c.36-.2,1.515.388,1.647.461a.078.078,0,0,1,.035.074.066.066,0,0,1-.054.054,4.832,4.832,0,0,1-.914.1Zm-.515-.6a.24.24,0,0,0-.128.027.081.081,0,0,0-.047.074.252.252,0,0,0,.077.221,1.848,1.848,0,0,0,1.3.077,3.77,3.77,0,0,0-1.2-.4Z" transform="translate(-314.134 -311.722)" fill="#407bff"/>
      <path id="Path_10789" data-name="Path 10789" d="M323.653,408.931h-.031c-.345-.155-1.031-.775-.977-1.112,0-.078.07-.174.26-.194a.512.512,0,0,1,.388.12,1.917,1.917,0,0,1,.434,1.12.066.066,0,0,1-.027.062.073.073,0,0,1-.046,0Zm-.694-1.163h-.043c-.124,0-.132.062-.136.078-.031.2.434.69.775.9a1.612,1.612,0,0,0-.387-.9A.36.36,0,0,0,322.959,407.769Z" transform="translate(-315.279 -310.644)" fill="#407bff"/>
      <path id="Path_10790" data-name="Path 10790" d="M329.569,179.3c-.112,1.751-.415,5.309.93,6.293,0,0-.244,1.794-3.418,2.213-3.488.453-1.895-1.515-1.895-1.515,1.848-.705,1.612-2.112,1.108-3.4Z" transform="translate(-316.615 -170.796)" fill="#e4897b"/>
      <path id="Path_10791" data-name="Path 10791" d="M316.589,170.188a.132.132,0,0,1-.1-.046,1.1,1.1,0,0,0-.911-.387.136.136,0,0,1-.159-.116.139.139,0,0,1,.12-.155,1.36,1.36,0,0,1,1.162.488.139.139,0,0,1-.1.229Z" transform="translate(-310.853 -164.78)" fill="#263238"/>
      <path id="Path_10792" data-name="Path 10792" d="M315.882,175.74a6.308,6.308,0,0,1-.632,1.589,1,1,0,0,0,.849.046Z" transform="translate(-310.751 -168.616)" fill="#de5753"/>
      <path id="Path_10793" data-name="Path 10793" d="M316.409,174.031c.031.232-.066.434-.217.457s-.3-.155-.329-.387.066-.434.217-.453S316.382,173.783,316.409,174.031Z" transform="translate(-311.123 -167.333)" fill="#263238"/>
      <path id="Path_10794" data-name="Path 10794" d="M315.7,173.519l-.577-.089S315.461,173.829,315.7,173.519Z" transform="translate(-310.671 -167.201)" fill="#263238"/>
      <path id="Path_10795" data-name="Path 10795" d="M328.59,400.213h-2.906l-.194-6.723H328.4Z" transform="translate(-317.023 -301.988)" fill="#e4897b"/>
      <path id="Path_10796" data-name="Path 10796" d="M361.47,400.213h-2.906l-.934-6.723h2.906Z" transform="translate(-336.708 -301.988)" fill="#e4897b"/>
      <path id="Path_10797" data-name="Path 10797" d="M352.989,410h3.263a.229.229,0,0,1,.229.2l.388,2.585a.465.465,0,0,1-.465.515c-1.135-.019-1.686-.085-3.119-.085-.883,0-2.174.089-3.391.089s-1.283-1.205-.775-1.314a5.639,5.639,0,0,0,3.4-1.81A.775.775,0,0,1,352.989,410Z" transform="translate(-331.312 -312.1)" fill="#263238"/>
      <path id="Path_10798" data-name="Path 10798" d="M318.3,410h3.259a.232.232,0,0,1,.232.2l.388,2.585a.465.465,0,0,1-.465.515c-1.135-.019-1.686-.085-3.119-.085-.884,0-2.713.089-3.929.089s-1.283-1.205-.775-1.314a7.836,7.836,0,0,0,3.937-1.81A.775.775,0,0,1,318.3,410Z" transform="translate(-309.734 -312.1)" fill="#263238"/>
      <path id="Path_10799" data-name="Path 10799" d="M325.49,393.49l.1,3.468H328.5l-.1-3.468Z" transform="translate(-317.023 -301.988)" fill="#ce6f64"/>
      <path id="Path_10800" data-name="Path 10800" d="M360.536,393.49H357.63l.484,3.468h2.9Z" transform="translate(-336.708 -301.988)" fill="#ce6f64"/>
      <path id="Path_10801" data-name="Path 10801" d="M324.453,164.082c.2,2.875.341,4.088-.907,5.743a3.682,3.682,0,0,1-6.506-.659c-.949-2.484-1.112-6.766,1.531-8.269a3.933,3.933,0,0,1,5.882,3.185Z" transform="translate(-311.46 -159.206)" fill="#e4897b"/>
      <path id="Path_10802" data-name="Path 10802" d="M324.981,164.9c1.612.9,2.809-1.317,2.809-1.317s-2.891.314-2.631-1.407c.341-2.282-1.294-5.057-5.394-4.7-.229.019-.446.046-.659.081a2.108,2.108,0,0,0-2.55.589,2.167,2.167,0,0,0-1.666,3.317,1.685,1.685,0,0,1,.341-.57c.089,1.073,1.027,2.778,2.2,2.891.252,1.469-.725,3.17-.388,4.7.5,2.213,4.232,2.713,4.232,2.713a1.616,1.616,0,0,1,.217-1.709,4.4,4.4,0,0,0,4.2.027c-1.728-.643-1.205-1.79-1.205-1.79a2.523,2.523,0,0,0,3.29-1.2,2.976,2.976,0,0,1-2.8-1.631Z" transform="translate(-310.313 -157.355)" fill="#263238"/>
      <path id="Path_10803" data-name="Path 10803" d="M321.52,173.529a2.092,2.092,0,0,1-.581,1.5c-.512.531-1.139.159-1.31-.519-.151-.612-.066-1.624.6-1.9a.945.945,0,0,1,1.29.922Z" transform="translate(-313.394 -166.657)" fill="#e4897b"/>
      <path id="Path_10804" data-name="Path 10804" d="M330.84,242.45s.736,19.127,2.488,30.357c1.411,9.075,7.676,30.279,7.676,30.279h3.96s-3.267-20.479-3.984-29.45c-1.813-22.7,2.895-27.578-1.55-32.306Z" transform="translate(-320.3 -208.79)" fill="#263238"/>
      <path id="Path_10805" data-name="Path 10805" d="M334.9,259.818s-1.79-.31-2.837,3.1c.387,6.46,1.05,15.031,2.015,21.208.213,1.376.539,3.034.938,4.852C334.257,278.066,334.9,259.818,334.9,259.818Z" transform="translate(-321.047 -220.109)" fill="#161f33"/>
      <path id="Path_10806" data-name="Path 10806" d="M318,243.5s-3.263,21.161-3.073,30.016c.2,9.211,3.573,30.225,3.573,30.225h3.925s-.62-20.468-.275-29.512c.388-9.862,4.414-31.841,4.414-31.841Z" transform="translate(-310.548 -209.439)" fill="#263238"/>
      <path id="Path_10807" data-name="Path 10807" d="M359.8,398.387h-5.266l-.411-1.767,5.638.039Z" transform="translate(-334.559 -303.905)" fill="#fa4a0c"/>
      <path id="Path_10808" data-name="Path 10808" d="M359.8,398.387h-5.266l-.411-1.767,5.638.039Z" transform="translate(-334.559 -303.905)" opacity="0.2"/>
      <path id="Path_10809" data-name="Path 10809" d="M348.029,195.537c1.515.147,3.817,4.452,3.817,4.452l-3.825,2.933s-3.166-2.778-2.79-4.34c.391-1.624,1.345-3.181,2.8-3.046Z" transform="translate(-329.095 -180.737)" fill="#fca485"/>
      <path id="Path_10810" data-name="Path 10810" d="M348.029,195.537c1.515.147,3.817,4.452,3.817,4.452l-3.825,2.933s-3.166-2.778-2.79-4.34c.391-1.624,1.345-3.181,2.8-3.046Z" transform="translate(-329.095 -180.737)" opacity="0.02"/>
      <path id="Path_10811" data-name="Path 10811" d="M346.883,200.116a3.925,3.925,0,0,0-1.186-.132,6.549,6.549,0,0,0-.469,1.325c-.388,1.55,2.79,4.34,2.79,4.34l.283-.217Z" transform="translate(-329.092 -183.464)" fill="#fa4a0c"/>
      <path id="Path_10812" data-name="Path 10812" d="M346.883,200.116a3.925,3.925,0,0,0-1.186-.132,6.549,6.549,0,0,0-.469,1.325c-.388,1.55,2.79,4.34,2.79,4.34l.283-.217Z" transform="translate(-329.092 -183.464)" opacity="0.2"/>
      <path id="Path_10813" data-name="Path 10813" d="M309.793,209.163c-1.1,2.794-2.267,5.634-3.193,8.436-.062.178-.112.349-.167.523l-.132.43a.709.709,0,0,0,0,.388,2.914,2.914,0,0,0,1,1.2,16.351,16.351,0,0,0,3.755,2.011l-.349,1.426a13.443,13.443,0,0,1-4.681-1.527,5.01,5.01,0,0,1-2.089-2.116,3.243,3.243,0,0,1-.267-1.844,2.155,2.155,0,0,1,.039-.229l.039-.163.066-.294c.047-.2.093-.387.143-.581.388-1.55.884-3.023,1.407-4.483s1.07-2.9,1.686-4.34Z" transform="translate(-303.639 -188.375)" fill="#e4897b"/>
      <path id="Path_10814" data-name="Path 10814" d="M313.2,197.473s-1.31.663,3.65,17.2l11.695-1.527c-.822-4.735-1.209-7.669-.213-17.736a35.262,35.262,0,0,0-5.037,0,37,37,0,0,0-5.313.7c-2.244.5-4.782,1.368-4.782,1.368Z" transform="translate(-309.401 -180.607)" fill="#fca485"/>
      <path id="Path_10815" data-name="Path 10815" d="M313.2,197.473s-1.31.663,3.65,17.2l11.695-1.527c-.822-4.735-1.209-7.669-.213-17.736a35.262,35.262,0,0,0-5.037,0,37,37,0,0,0-5.313.7c-2.244.5-4.782,1.368-4.782,1.368Z" transform="translate(-309.401 -180.607)" opacity="0.02"/>
      <path id="Path_10816" data-name="Path 10816" d="M333.954,239.376l.67.973c.05.077-.035.17-.167.19l-12.264,1.6c-.1,0-.2-.027-.217-.093l-.24-1.035c-.019-.07.066-.143.182-.159l11.842-1.55A.213.213,0,0,1,333.954,239.376Z" transform="translate(-314.722 -207.548)" fill="#fa4a0c"/>
      <path id="Path_10817" data-name="Path 10817" d="M333.954,239.376l.67.973c.05.077-.035.17-.167.19l-12.264,1.6c-.1,0-.2-.027-.217-.093l-.24-1.035c-.019-.07.066-.143.182-.159l11.842-1.55A.213.213,0,0,1,333.954,239.376Z" transform="translate(-314.722 -207.548)" opacity="0.1"/>
      <path id="Path_10818" data-name="Path 10818" d="M348.884,241.025l.318-.043c.062,0,.1-.047.1-.085l-.326-1.341a.112.112,0,0,0-.132-.054l-.318.039c-.066,0-.109.046-.1.089l.326,1.337C348.76,241.01,348.822,241.033,348.884,241.025Z" transform="translate(-331.07 -207.667)" fill="#263238"/>
      <path id="Path_10819" data-name="Path 10819" d="M329.044,243.582l.318-.043c.062,0,.109-.047.1-.085l-.326-1.341a.12.12,0,0,0-.132-.058l-.318.043c-.062,0-.108.046-.1.085l.325,1.341C328.92,243.582,328.982,243.605,329.044,243.582Z" transform="translate(-318.919 -209.232)" fill="#263238"/>
      <path id="Path_10820" data-name="Path 10820" d="M314.86,214.9c.322,1.5.775,3.391,1.438,5.789l.143-6.08Z" transform="translate(-310.512 -192.424)" fill="#fa4a0c"/>
      <path id="Path_10821" data-name="Path 10821" d="M314.86,214.9c.322,1.5.775,3.391,1.438,5.789l.143-6.08Z" transform="translate(-310.512 -192.424)" opacity="0.2"/>
      <path id="Path_10822" data-name="Path 10822" d="M309.163,200.283c-1.453.585-2.713,5.557-2.713,5.557l5,2.433s2.414-6.08,1.333-7.266S310.837,199.612,309.163,200.283Z" transform="translate(-305.361 -183.417)" fill="#fca485"/>
      <path id="Path_10823" data-name="Path 10823" d="M309.163,200.283c-1.453.585-2.713,5.557-2.713,5.557l5,2.433s2.414-6.08,1.333-7.266S310.837,199.612,309.163,200.283Z" transform="translate(-305.361 -183.417)" opacity="0.02"/>
      <path id="Path_10824" data-name="Path 10824" d="M327.047,398.387h-5.266l-.411-1.767,5.863.039Z" transform="translate(-314.499 -303.905)" fill="#fa4a0c"/>
      <path id="Path_10825" data-name="Path 10825" d="M327.047,398.387h-5.266l-.411-1.767,5.863.039Z" transform="translate(-314.499 -303.905)" opacity="0.2"/>
      <path id="Path_10826" data-name="Path 10826" d="M320.949,242.93l-.422-.174a.636.636,0,0,0-.868.682l.306,2.019a.69.69,0,0,0,.914.55,1.55,1.55,0,0,0,.426-.236,1.162,1.162,0,0,0,.418-.961l-.043-.837a1.162,1.162,0,0,0-.732-1.042Z" transform="translate(-313.447 -209.635)" fill="#e4897b"/>
    </g>
  </g>
</svg>
