<svg xmlns="http://www.w3.org/2000/svg" width="18" height="22.649" viewBox="0 0 18 22.649">
  <g id="Group_12321" data-name="Group 12321" transform="translate(236.847 287.889)">
    <path id="Path_10709" data-name="Path 10709" d="M-222.131-265.24h-11.442a.781.781,0,0,0-.12-.043,3.673,3.673,0,0,1-3.153-3.738c.012-.544.077-1.087.12-1.63q.207-2.655.416-5.309c.156-1.953.32-3.9.469-5.859a1.62,1.62,0,0,1,1.718-1.609l1.883,0c0,.978,0,1.956,0,2.935a.664.664,0,0,0,.675.693.665.665,0,0,0,.652-.694c0-.978,0-1.956,0-2.934h6.126c0,.963,0,1.927,0,2.89a.673.673,0,0,0,.653.738.674.674,0,0,0,.676-.737q0-1.446,0-2.891c.643,0,1.285,0,1.927,0a1.613,1.613,0,0,1,1.673,1.586c.084,1.176.184,2.35.278,3.525q.19,2.4.383,4.8c.112,1.4.205,2.792.34,4.185a3.709,3.709,0,0,1-2.36,3.834C-221.517-265.386-221.829-265.324-222.131-265.24Zm-4.73-8.861c.108-.088.176-.134.233-.191.587-.583,1.171-1.168,1.758-1.751a.691.691,0,0,0,.238-.675.631.631,0,0,0-.461-.491.661.661,0,0,0-.687.2q-.9.9-1.8,1.8c-.056.056-.116.108-.182.17-.068-.064-.127-.118-.184-.175q-.887-.883-1.771-1.768a.684.684,0,0,0-.721-.219.657.657,0,0,0-.243,1.135c.6.6,1.2,1.2,1.8,1.8.055.055.107.115.185.2-.2.194-.4.372-.589.558q-.708.7-1.411,1.409a.646.646,0,0,0-.183.687.636.636,0,0,0,.5.453.7.7,0,0,0,.673-.248q.884-.886,1.771-1.769c.055-.055.114-.107.2-.186.067.08.113.147.17.2.584.585,1.171,1.168,1.755,1.754a.7.7,0,0,0,.674.243.662.662,0,0,0,.3-1.143c-.526-.539-1.064-1.066-1.6-1.6C-226.56-273.829-226.693-273.945-226.861-274.1Z" fill="#fff"/>
    <path id="Path_10710" data-name="Path 10710" d="M-230.915-283.431c0,.978,0,1.956,0,2.934a.665.665,0,0,1-.652.694.664.664,0,0,1-.675-.693c0-.979,0-1.957,0-2.935l-.006.006h1.337Z" fill="#fff" stroke="#fff" stroke-width="0.2"/>
    <path id="Path_10711" data-name="Path 10711" d="M-223.465-283.431q0,1.445,0,2.891a.674.674,0,0,1-.676.737.673.673,0,0,1-.653-.738c0-.963,0-1.927,0-2.89l-.006.006h1.336Z" fill="#fff" stroke="#fff" stroke-width="0.2"/>
    <path id="Path_10712" data-name="Path 10712" d="M-223.459-283.425h-1.336a3.062,3.062,0,0,0-3.057-3.144,3.06,3.06,0,0,0-3.057,3.144h-1.337a4.4,4.4,0,0,1,1.474-3.354,4.4,4.4,0,0,1,6.079.229A4.437,4.437,0,0,1-223.459-283.425Z" fill="#fff"/>
  </g>
</svg>
