<svg xmlns="http://www.w3.org/2000/svg" xmlns:xlink="http://www.w3.org/1999/xlink" width="110" height="123.273" viewBox="0 0 110 123.273">
  <defs>
    <clipPath id="clip-path">
      <rect id="Rectangle_19545" data-name="Rectangle 19545" width="110" height="123.273" fill="none"/>
    </clipPath>
  </defs>
  <g id="Group_12831" data-name="Group 12831" transform="translate(-125 -271.858)">
    <g id="Group_12829" data-name="Group 12829" transform="translate(125 271.858)">
      <g id="Mask_Group_12828" data-name="Mask Group 12828" clip-path="url(#clip-path)">
        <path id="Path_14014" data-name="Path 14014" d="M26.387,34.1c.14-3.155.111-6.115.427-9.037a28.375,28.375,0,0,1,56.356-.044c.312,2.927.3,5.889.441,9.081h1.957q9.813,0,19.627,0c3.4.006,4.773,1.322,4.775,4.673.014,20.919.07,41.838-.018,62.755-.052,12.478-9.387,21.689-21.883,21.715q-32.865.068-65.73.008C9.288,123.241.11,114.1.025,101.019c-.05-7.775-.009-15.55-.01-23.326q0-19.16,0-38.32C.019,35.266,1.2,34.1,5.31,34.1c6.971,0,14.934,0,22.069,0M7.594,41.811v2.025c0,19,.137,38.006-.064,57.006A14.453,14.453,0,0,0,22.42,115.677c21.718-.223,43.441-.07,65.162-.076,9.076,0,14.814-5.723,14.817-14.766q.009-28.5,0-57.007V41.883H83.467c0,.941,0,1.736,0,2.53,0,2.221.059,4.445-.025,6.663a3.748,3.748,0,0,1-3.69,3.858A3.786,3.786,0,0,1,75.845,51.1c-.055-.736-.02-1.48-.021-2.22,0-2.322,0-4.645,0-6.986H34.164c0,3.115.069,6.074-.02,9.028-.085,2.84-2.3,4.55-4.826,3.876-1.717-.457-2.757-1.935-2.781-4.1-.033-2.939-.008-5.878-.008-8.888ZM75.72,34.005c1.111-12.67-3.134-19.683-10.832-23.839C57.348,6.1,49.732,6.632,42.734,11.657c-7.676,5.511-9.328,13.44-8.393,22.348Z" transform="translate(-0.001 -0.001)" fill="#fa4a0c" stroke="#fff" stroke-width="2"/>
        <path id="Path_14015" data-name="Path 14015" d="M15.319,84.706H34.253c0,3.009-.025,5.949.008,8.887.024,2.164,1.064,3.642,2.781,4.1,2.529.673,4.741-1.037,4.826-3.876.089-2.955.02-5.914.02-9.028h41.66c0,2.341,0,4.664,0,6.986,0,.74-.035,1.484.021,2.22a3.786,3.786,0,0,0,3.907,3.834,3.748,3.748,0,0,0,3.69-3.858c.084-2.218.023-4.441.025-6.663,0-.795,0-1.589,0-2.531h18.933v1.946q0,28.5,0,57.007c0,9.043-5.741,14.763-14.817,14.766-21.721.006-43.443-.147-65.162.076a14.452,14.452,0,0,1-14.889-14.835c.2-19,.064-38,.064-57.006Z" transform="translate(-7.725 -42.895)" fill="#fff"/>
        <path id="Path_14016" data-name="Path 14016" d="M110.709,41.656H69.33c-.935-8.908.717-16.837,8.393-22.348,7-5.025,14.615-5.562,22.155-1.491,7.7,4.156,11.942,11.169,10.832,23.839" transform="translate(-34.989 -7.651)" fill="#fff"/>
      </g>
    </g>
    <g id="Group_12830" data-name="Group 12830" transform="translate(-3.515 -8.51)">
      <path id="Path_14017" data-name="Path 14017" d="M96.109,180.6c-4.467,0-8.934-.012-13.4.007-1.476.006-2.929-.152-2.826-2.045.088-1.626,1.446-1.741,2.772-1.738q13.587.021,27.173,0c1.476,0,2.926.149,2.824,2.044-.087,1.632-1.445,1.744-2.77,1.739-4.591-.019-9.182-.007-13.773-.007" transform="translate(88.703 197.698)" fill="#fa4a0c"/>
      <path id="Path_14018" data-name="Path 14018" d="M84.949,150.181a4.883,4.883,0,0,1-4.832-5.126c.266-2.852,1.883-4.5,4.848-4.505a4.583,4.583,0,0,1,4.734,5c-.243,2.915-2.068,4.31-4.751,4.63" transform="translate(88.647 206.896)" fill="#fa4a0c"/>
      <path id="Path_14019" data-name="Path 14019" d="M121.123,145.211c-.23,2.992-1.807,4.684-4.634,4.943a4.826,4.826,0,0,1-5.023-4.823,4.715,4.715,0,0,1,5-4.756c2.951.161,4.37,1.9,4.656,4.636" transform="translate(80.693 206.891)" fill="#fa4a0c"/>
    </g>
  </g>
</svg>
