<svg id="Group_12430" data-name="Group 12430" xmlns="http://www.w3.org/2000/svg" width="20" height="17" viewBox="0 0 20 17">
  <path id="Path_10719" data-name="Path 10719" d="M-630.392,354.181a1.138,1.138,0,0,0-.091-.146.393.393,0,0,0-.434-.143.381.381,0,0,0-.3.342,1.974,1.974,0,0,0-.007.229q0,3.553,0,7.106a1.234,1.234,0,0,1-.922,1.271,1.72,1.72,0,0,1-.424.049q-7.82,0-15.642,0a1.252,1.252,0,0,1-1.35-1.318c0-.589,0-1.178,0-1.767,0-.057.005-.114.01-.2h.234c1.7,0,3.411,0,5.117,0a1.971,1.971,0,0,0,2.091-1.71,17.259,17.259,0,0,0,0-3.124,1.972,1.972,0,0,0-2.09-1.713c-1.7-.005-3.4,0-5.1,0h-.254c0-.074-.012-.135-.012-.2q0-.883,0-1.768a1.254,1.254,0,0,1,1.348-1.321q4.432,0,8.865,0c.072,0,.145,0,.216,0a.412.412,0,0,0,.408-.408.417.417,0,0,0-.412-.405c-.066,0-.13,0-.2,0H-648.1a2.087,2.087,0,0,0-2.267,1.738c0,.011-.016.019-.023.028V361.94c.033.115.065.231.1.344a2.086,2.086,0,0,0,2.069,1.421h15.657c.059,0,.118,0,.176,0a2.086,2.086,0,0,0,1.918-1.492c.026-.091.052-.181.079-.271Zm-19.147-.307h.2q2.567,0,5.134,0a1.24,1.24,0,0,1,1.311,1.291q0,1.152,0,2.3a1.243,1.243,0,0,1-1.339,1.322h-5.307Z" transform="translate(650.392 -346.707)" fill="#fff" fill-rule="evenodd"/>
  <path id="Path_10720" data-name="Path 10720" d="M-637.806,355.7a.877.877,0,0,0-.594.957c.016,1.106.005,2.213.005,3.32v.223h-.875c-.315,0-.632,0-.948,0a.381.381,0,0,0-.394.235.381.381,0,0,0,.117.444q1.833,1.83,3.665,3.663a.386.386,0,0,0,.636-.009q1.275-1.271,2.546-2.545c.332-.331.665-.661.993-.995.094-.094.175-.2.263-.3v-.211a.464.464,0,0,0-.492-.285c-.521.011-1.042,0-1.563,0h-.2v-.215c0-1.119-.011-2.237.005-3.355a.853.853,0,0,0-.6-.93Zm2.417.757v3.831c0,.1,0,.2,0,.3a.35.35,0,0,0,.357.357c.187.008.375,0,.562,0h.74c-.943.943-1.877,1.876-2.771,2.771l-2.771-2.771h1.12c.394,0,.509-.117.51-.515v-3.975Z" transform="translate(652.392 -355.702)" fill="#fff" fill-rule="evenodd"/>
  <path id="Path_10721" data-name="Path 10721" d="M-645.146,355.7a1.5,1.5,0,0,0-1.5-1.5,1.509,1.509,0,0,0-1.5,1.517,1.508,1.508,0,0,0,1.51,1.486A1.5,1.5,0,0,0-645.146,355.7Zm-1.489-.741a.747.747,0,0,1,.742.754.747.747,0,0,1-.757.738.75.75,0,0,1-.744-.754A.75.75,0,0,1-646.635,354.961Z" transform="translate(650.392 -345.972)" fill="#fff" fill-rule="evenodd"/>
</svg>
