<svg xmlns="http://www.w3.org/2000/svg" width="18" height="11.611" viewBox="0 0 18 11.611">
  <g id="Group_12172" data-name="Group 12172" transform="translate(246 -446.181)">
    <path id="Path_10647" data-name="Path 10647" d="M-228,446.572V457.4a.676.676,0,0,1-.708.391q-8.292-.009-16.584,0A.678.678,0,0,1-246,457.4v-3.446a.682.682,0,0,1,.653-.4,1.568,1.568,0,0,0,1.456-1.579,1.57,1.57,0,0,0-1.456-1.563.68.68,0,0,1-.653-.4v-3.446a.677.677,0,0,1,.708-.391q8.292.009,16.584,0A.676.676,0,0,1-228,446.572Zm-1.067,10.154v-9.475h-11.619c0,.057,0,.1,0,.148,0,.117,0,.234,0,.351a.525.525,0,0,1-.507.544.533.533,0,0,1-.545-.527c-.008-.172,0-.345,0-.514h-3.205V449.4a2.665,2.665,0,0,1,2.1,2.39,2.543,2.543,0,0,1-.358,1.532,2.647,2.647,0,0,1-1.732,1.252v2.152h3.152c0-.17,0-.332,0-.495a.531.531,0,0,1,.52-.55.53.53,0,0,1,.534.554c0,.162,0,.324,0,.493Z" fill="#fa4a0c"/>
    <path id="Path_10648" data-name="Path 10648" d="M-231.143,448.837a1.9,1.9,0,0,1-.138.316q-2.079,3.127-4.165,6.25a.528.528,0,0,1-.759.183.53.53,0,0,1-.113-.774q2.077-3.119,4.158-6.236a.524.524,0,0,1,.63-.252A.579.579,0,0,1-231.143,448.837Z" fill="#fa4a0c"/>
    <path id="Path_10649" data-name="Path 10649" d="M-234.329,449.877a1.587,1.587,0,0,1-1.59,1.582,1.588,1.588,0,0,1-1.573-1.582A1.587,1.587,0,0,1-235.9,448.3,1.585,1.585,0,0,1-234.329,449.877Zm-1.583.527a.533.533,0,0,0,.528-.521.533.533,0,0,0-.516-.533.533.533,0,0,0-.537.529A.535.535,0,0,0-235.912,450.4Z" fill="#fa4a0c"/>
    <path id="Path_10650" data-name="Path 10650" d="M-231.679,452.514a1.586,1.586,0,0,1,1.569,1.6,1.586,1.586,0,0,1-1.594,1.561,1.588,1.588,0,0,1-1.569-1.6A1.587,1.587,0,0,1-231.679,452.514Zm.514,1.582a.533.533,0,0,0-.522-.527.533.533,0,0,0-.531.518.534.534,0,0,0,.531.536A.534.534,0,0,0-231.165,454.1Z" fill="#fa4a0c"/>
    <path id="Path_10651" data-name="Path 10651" d="M-240.727,450.414c0,.17,0,.339,0,.509a.527.527,0,0,1-.532.535.526.526,0,0,1-.52-.53c-.005-.35-.005-.7,0-1.051a.526.526,0,0,1,.523-.527.528.528,0,0,1,.529.521C-240.722,450.052-240.727,450.233-240.727,450.414Z" fill="#fa4a0c"/>
    <path id="Path_10652" data-name="Path 10652" d="M-241.781,453.565c0-.175,0-.351,0-.526a.528.528,0,0,1,.525-.525.525.525,0,0,1,.526.523c.007.356.008.713,0,1.069a.525.525,0,0,1-.533.517.528.528,0,0,1-.517-.515C-241.786,453.928-241.781,453.746-241.781,453.565Z" fill="#fa4a0c"/>
  </g>
</svg>
