<svg xmlns="http://www.w3.org/2000/svg" width="10" height="7" viewBox="0 0 10 7">
  <g id="Group_12486" data-name="Group 12486" transform="translate(-179 -62)">
    <path id="Icon_awesome-angle-down" data-name="Icon awesome-angle-down" d="M4.468,16.535.217,12.586a.66.66,0,0,1,0-.985l.706-.656a.788.788,0,0,1,1.06,0L5,13.745l3.013-2.8a.788.788,0,0,1,1.06,0l.706.656a.66.66,0,0,1,0,.985l-4.251,3.95a.784.784,0,0,1-1.057,0Z" transform="translate(179.003 52.26)" fill="#fa4a0c"/>
    <path id="Icon_awesome-angle-down-2" data-name="Icon awesome-angle-down" d="M4.468,16.535.217,12.586a.66.66,0,0,1,0-.985l.706-.656a.788.788,0,0,1,1.06,0L5,13.745l3.013-2.8a.788.788,0,0,1,1.06,0l.706.656a.66.66,0,0,1,0,.985l-4.251,3.95a.784.784,0,0,1-1.057,0Z" transform="translate(179.003 51.26)" fill="#fff"/>
  </g>
</svg>
