<svg id="Group_12815" data-name="Group 12815" xmlns="http://www.w3.org/2000/svg" xmlns:xlink="http://www.w3.org/1999/xlink" width="110.775" height="68.514" viewBox="0 0 110.775 68.514">
  <defs>
    <clipPath id="clip-path">
      <rect id="Rectangle_19544" data-name="Rectangle 19544" width="110.775" height="68.514" fill="none"/>
    </clipPath>
  </defs>
  <g id="Group_12814" data-name="Group 12814" clip-path="url(#clip-path)">
    <path id="Path_14005" data-name="Path 14005" d="M11.878,38.121a23.243,23.243,0,0,1-4.525-6.24A22.1,22.1,0,0,1,24.3.239C31.708-.722,38,1.593,43.284,6.833c.827.82,1.538,2.306,2.585,2.206.885-.084,1.662-1.419,2.467-2.22a22.27,22.27,0,0,1,27.9-3.4c7.834,4.712,11.789,14.277,9.733,23.769-.262,1.208-.031,1.439,1.12,1.407,2.559-.069,5.122-.023,7.683-.021.738,0,1.527,0,1.476,1.047-.048.978-.784,1.025-1.545,1.023-2.893-.01-5.787.027-8.679-.023a1.486,1.486,0,0,0-1.616,1.022,22.921,22.921,0,0,1-5.06,6.97Q65.922,52.048,52.488,65.476c-2.808,2.816-6.02,3.81-9.841,2.408a8.658,8.658,0,0,1-3.122-2.167Q27.267,53.427,15,41.148a2.967,2.967,0,0,0-2.35-.991c-3.509.058-7.019.023-10.528.023-.332,0-.665.016-1-.009C.406,40.116-.056,39.756.005,39c.057-.716.565-.884,1.217-.881,2.893.015,5.786.006,8.679.006h1.976m29.88,26.024a5.674,5.674,0,0,0,8.11.023Q64.344,49.709,78.8,35.231A16.4,16.4,0,0,0,81.388,31.7c.426-.747.217-.982-.607-.969-2.461.041-4.923.039-7.384.053-4.027-.022-8.055-.1-12.081-.037-1.44.021-2.291-.241-2.13-1.908a7.108,7.108,0,0,0-.233-1.674q-.361-2.368-.722-4.737a5.938,5.938,0,0,0-.881,1.846Q53.3,36.962,49.243,49.644c-.116.359-.031.985-.607.991s-.5-.617-.631-.98c-1.793-5.127-3.556-10.265-5.353-15.39-.141-.4-.089-.954-.7-1.21-.844,1.967-1.753,3.881-2.478,5.862a1.634,1.634,0,0,1-1.834,1.29c-6.067-.048-12.134-.029-18.2-.014-.474,0-1.007-.179-1.523.239C23.139,45.646,28.3,50.806,33.472,55.955c2.752,2.74,5.523,5.46,8.285,8.189M63.7,2.858A16.8,16.8,0,0,0,53.8,5.8c-2.747,1.691-4.7,4.255-6.966,6.462-.785.764-1.2.731-1.9-.036C43.69,10.866,42.373,9.561,41.024,8.3,35.909,3.5,29.89,1.648,23.013,3.137A19.249,19.249,0,0,0,7.87,19.891c-.729,7.176,1.981,13.042,7.309,17.785a1.439,1.439,0,0,0,1.035.36q10.177,0,20.353.008a1.112,1.112,0,0,0,1.19-.772c.6-1.491,1.211-2.978,1.855-4.45a47.32,47.32,0,0,1,2.758-6.033l6.1,17.333a5.867,5.867,0,0,0,.447-.771q2.609-8.171,5.207-16.345,2.1-6.55,4.22-13.091c.1-.308.127-.736.554-.71s.4.44.441.765c.093.8.176,1.593.292,2.386.544,3.731,1.132,7.457,1.623,11.2.115.875.454,1.04,1.251,1.03,3.368-.041,6.737,0,10.105-.029.644,0,1.33.213,1.932-.22,2.322,0,4.647-.072,6.964.028a1.542,1.542,0,0,0,1.826-1.449,21.312,21.312,0,0,0,.328-7.847A19.418,19.418,0,0,0,67.554,2.95c-1.227-.208-2.564-.616-3.859-.092" transform="translate(0 0)" fill="#fa4a0c"/>
    <path id="Path_14006" data-name="Path 14006" d="M361.778,102.2c-1.088,0-2.176.013-3.263,0-.649-.011-1.13-.309-1.1-1.016a1,1,0,0,1,1.11-1.033c2.223,0,4.446-.011,6.669.008.582,0,1.013.278,1.018.935a.979.979,0,0,1-1.027,1.1c-1.134.032-2.27.009-3.405.009" transform="translate(-256.689 -71.569)" fill="#fa4a0c"/>
    <path id="Path_14007" data-name="Path 14007" d="M93.964,34.935c-.6.433-1.288.215-1.932.22-3.368.024-6.737-.012-10.105.029-.8.01-1.135-.155-1.25-1.031-.491-3.739-1.079-7.464-1.623-11.2-.116-.793-.2-1.59-.291-2.386-.038-.324-.015-.739-.442-.765s-.455.4-.554.71q-2.111,6.545-4.221,13.091-2.614,8.169-5.207,16.345a5.811,5.811,0,0,1-.447.771l-6.1-17.333a47.343,47.343,0,0,0-2.758,6.033c-.643,1.473-1.255,2.959-1.855,4.45a1.112,1.112,0,0,1-1.19.772q-10.177-.025-20.353-.008a1.441,1.441,0,0,1-1.035-.36c-5.328-4.743-8.038-10.61-7.309-17.786A19.25,19.25,0,0,1,42.434,9.736c6.876-1.489,12.9.363,18.01,5.159,1.349,1.265,2.667,2.57,3.915,3.933.7.767,1.114.8,1.9.036,2.27-2.207,4.218-4.771,6.966-6.462a16.805,16.805,0,0,1,9.893-2.945c.162.825.9,1.032,1.5,1.368a19.647,19.647,0,0,1,7.665,7.917,20.912,20.912,0,0,1,1.684,16.193M31.094,28.727a14.993,14.993,0,0,0,4.513,10.882c.368.364.728.8,1.322.328a1.1,1.1,0,0,0,.358-1.6,11.651,11.651,0,0,0-.883-1.1,12.789,12.789,0,0,1-3.056-9.167,13,13,0,0,1,4.5-9.29c.591-.527,1.073-1.173.3-1.916-.7-.676-1.281-.2-1.831.3a15.281,15.281,0,0,0-5.225,11.567M45.589,13.264a12.153,12.153,0,0,0-5.043,1.21,1.061,1.061,0,0,0-.582,1.422.95.95,0,0,0,1.269.616,21.491,21.491,0,0,1,5.644-1.188.89.89,0,0,0,.86-1.085.974.974,0,0,0-1.01-.97c-.377-.025-.757,0-1.137,0" transform="translate(-19.421 -6.599)" fill="#fefefe"/>
    <path id="Path_14008" data-name="Path 14008" d="M86.637,120.332c-2.762-2.729-5.534-5.45-8.285-8.189-5.172-5.149-10.333-10.31-15.555-15.522.516-.418,1.049-.238,1.523-.239,6.067-.015,12.134-.035,18.2.014a1.634,1.634,0,0,0,1.834-1.29c.725-1.981,1.634-3.895,2.478-5.862.609.256.558.809.7,1.21,1.8,5.126,3.56,10.263,5.353,15.39.127.362.052.986.63.98s.491-.632.607-.991q4.073-12.677,8.106-25.367a5.939,5.939,0,0,1,.881-1.846l.722,4.737a7.1,7.1,0,0,1,.233,1.673c-.16,1.668.691,1.93,2.13,1.908,4.026-.06,8.054.015,12.081.037-.707,2.611-2.471,4.565-4.28,6.395C105.342,102.124,96.61,110.8,87.9,119.5c-.362.362-.67.82-1.267.829" transform="translate(-44.879 -56.187)" fill="#fefefe"/>
    <path id="Path_14009" data-name="Path 14009" d="M146.353,141.128c.6-.009.905-.468,1.267-.829,8.707-8.7,17.438-17.378,26.091-26.133,1.809-1.83,3.573-3.784,4.28-6.395,2.462-.015,4.923-.012,7.384-.053.825-.013,1.033.222.607.969a16.415,16.415,0,0,1-2.586,3.527q-14.458,14.478-28.934,28.937a5.673,5.673,0,0,1-8.11-.023" transform="translate(-104.595 -76.983)" fill="#eceef6"/>
    <path id="Path_14010" data-name="Path 14010" d="M234.09,34.852a20.912,20.912,0,0,0-1.684-16.193,19.649,19.649,0,0,0-7.665-7.917c-.6-.336-1.337-.543-1.5-1.368,1.295-.525,2.632-.116,3.859.092a19.418,19.418,0,0,1,16.107,16.119,21.3,21.3,0,0,1-.328,7.847,1.542,1.542,0,0,1-1.826,1.449c-2.318-.1-4.642-.029-6.964-.028" transform="translate(-159.546 -6.516)" fill="#eceef6"/>
    <path id="Path_14011" data-name="Path 14011" d="M40.911,47A15.281,15.281,0,0,1,46.136,35.43c.549-.5,1.127-.974,1.831-.3.772.743.29,1.389-.3,1.916a13,13,0,0,0-4.5,9.29,12.79,12.79,0,0,0,3.056,9.167,11.644,11.644,0,0,1,.883,1.1,1.1,1.1,0,0,1-.358,1.6c-.594.474-.954.036-1.322-.328A14.993,14.993,0,0,1,40.911,47" transform="translate(-29.238 -24.869)" fill="#fa4a0c"/>
    <path id="Path_14012" data-name="Path 14012" d="M77.412,23.336c.379,0,.759-.021,1.136,0a.975.975,0,0,1,1.011.97A.89.89,0,0,1,78.7,25.4a21.479,21.479,0,0,0-5.644,1.188.95.95,0,0,1-1.269-.616,1.061,1.061,0,0,1,.582-1.422,12.161,12.161,0,0,1,5.044-1.21" transform="translate(-51.244 -16.672)" fill="#fa4a0c"/>
  </g>
</svg>
