<svg xmlns="http://www.w3.org/2000/svg" width="110.378" height="96.843" viewBox="0 0 110.378 96.843">
  <g id="Group_12824" data-name="Group 12824" transform="translate(-122 -260.424)">
    <g id="Group_12816" data-name="Group 12816" transform="translate(122 283.196)">
      <path id="Path_10719" data-name="Path 10719" d="M-549.964,375.192a5.729,5.729,0,0,0-.457-.735,1.975,1.975,0,0,0-2.181-.719,1.913,1.913,0,0,0-1.5,1.717,9.911,9.911,0,0,0-.034,1.152q0,17.841-.006,35.683a6.2,6.2,0,0,1-4.631,6.381,8.638,8.638,0,0,1-2.131.247q-39.268.017-78.546.005c-4.112,0-6.762-2.595-6.779-6.616-.011-2.957-.005-5.914,0-8.871,0-.285.028-.571.05-1H-645c8.559,0,17.129.017,25.693-.005,5.468-.016,10.026-3.4,10.5-8.586a86.674,86.674,0,0,0,0-15.685c-.468-5.19-5.032-8.586-10.495-8.6-8.531-.028-17.067-.006-25.593-.006h-1.277c-.022-.373-.061-.68-.061-.982q-.008-4.436,0-8.877c.017-4.021,2.661-6.628,6.768-6.633q22.253-.008,44.517,0c.363,0,.726.011,1.083-.011A2.069,2.069,0,0,0-591.808,351a2.1,2.1,0,0,0-2.07-2.035c-.329-.022-.653-.005-.982-.005h-44.032c-6.221,0-9.881,2.809-11.381,8.729-.011.055-.078.093-.118.143v56.322c.168.576.324,1.158.513,1.728,1.461,4.411,5.428,7.138,10.389,7.138q39.318.008,78.619.005c.3,0,.591-.005.881-.016a10.474,10.474,0,0,0,9.63-7.494c.129-.455.262-.911.4-1.361Zm-96.143-1.542h1q12.888,0,25.782,0a6.224,6.224,0,0,1,6.583,6.485q.018,5.785,0,11.565c0,4.054-2.617,6.633-6.723,6.638h-26.647Z" transform="translate(650.392 -348.956)" fill="#fa4a0c" fill-rule="evenodd"/>
      <path id="Path_10721" data-name="Path 10721" d="M-633.1,361.722a7.546,7.546,0,0,0-7.522-7.517,7.577,7.577,0,0,0-7.522,7.618,7.57,7.57,0,0,0,7.582,7.462A7.533,7.533,0,0,0-633.1,361.722ZM-640.574,358a3.753,3.753,0,0,1,3.726,3.786,3.75,3.75,0,0,1-3.8,3.706,3.765,3.765,0,0,1-3.736-3.786A3.765,3.765,0,0,1-640.574,358Z" transform="translate(659.44 -324.155)" fill="#fa4a0c" fill-rule="evenodd"/>
    </g>
    <path id="Path_14013" data-name="Path 14013" d="M355.568,255.152a23.692,23.692,0,0,1-16.931-7.971A24.047,24.047,0,0,1,333.191,232a25.436,25.436,0,0,1,2.747-10.539c4.392-7.351,10.807-11.654,19.4-11.847,9.353-.21,16.33,4.154,20.914,12.315.269.479.527.965.79,1.448a23.563,23.563,0,0,1,1.43,12.466C376.407,247.423,367.547,254.822,355.568,255.152Zm-2.87-23.026c-.174.2-.374.452-.6.679-.968.977-1.943,1.947-2.916,2.919-3.011,3.011-2.988,2.988.014,5.917.7.685,1.126.8,1.842.032,1.421-1.531,3.005-2.913,4.4-4.468.958-1.07,1.611-1.274,2.655-.061,1.359,1.58,2.959,2.951,4.392,4.472.674.715,1.1.761,1.849.037,3.05-2.946,3.07-2.911.091-5.912-1.2-1.205-3.23-2.4-3.3-3.689-.077-1.473,2.119-2.565,3.336-3.81,2.94-3.007,2.943-2.964-.167-5.917-.666-.632-1.066-.708-1.725-.015-1.63,1.714-3.357,3.334-4.992,5.043-.6.628-1,.636-1.58-.005-.925-1.016-1.932-1.957-2.9-2.93-3.1-3.1-3.073-3.074-6.033.085-.662.707-.6,1.112.049,1.733,1.666,1.6,3.282,3.253,4.908,4.895C352.28,231.4,352.64,231.6,352.7,232.125Z" transform="translate(-146.407 50.816)" fill="#fa4a0c" opacity="0.87"/>
  </g>
</svg>
