<svg xmlns="http://www.w3.org/2000/svg" width="18" height="18.001" viewBox="0 0 18 18.001">
  <path id="Path_10518" data-name="Path 10518" d="M-299.321,453.357v-1.184c0-1.361,0-2.722,0-4.082a2.109,2.109,0,0,0-2.152-2.186q-1.13-.018-2.261,0a2.109,2.109,0,0,0-2.148,2.189c-.005,1.646,0,3.292,0,4.938v.324h-4.526a1.075,1.075,0,0,1-1.19-1.189c0-2.886,0-5.772,0-8.658a2.163,2.163,0,0,1,.823-1.768q3.66-3.017,7.316-6.04a1.246,1.246,0,0,1,1.725,0q3.66,3.018,7.316,6.041a2.161,2.161,0,0,1,.82,1.769c-.008,2.885,0,5.772,0,8.657a1.076,1.076,0,0,1-1.193,1.187h-4.522Z" transform="translate(311.602 -435.356)" fill="#c3c3c3" fill-rule="evenodd"/>
</svg>
