<svg xmlns="http://www.w3.org/2000/svg" width="18" height="21" viewBox="0 0 18 21">
  <path id="Icon_metro-language" data-name="Icon metro-language" d="M10.049,13.735q-.012.035-.146-.006t-.369-.135L9.3,13.488a7.021,7.021,0,0,1-1.02-.574q-.082-.059-.48-.369t-.445-.334a19.964,19.964,0,0,1-1.57,2.121,8.712,8.712,0,0,1-1.23,1.289.929.929,0,0,1-.229.047.451.451,0,0,1-.217,0q.07-.047.961-1.078.246-.281,1-1.348a16.384,16.384,0,0,0,.92-1.383q.2-.352.6-1.154A9.135,9.135,0,0,0,8.01,9.8a9.63,9.63,0,0,0-1.289.387q-.094.023-.322.088t-.4.111a2.008,2.008,0,0,0-.2.059.2.2,0,0,0-.023.123.26.26,0,0,1-.012.111q-.059.117-.363.176a.945.945,0,0,1-.551,0,.494.494,0,0,1-.328-.246.6.6,0,0,1-.059-.27,2.265,2.265,0,0,1,.287-.059,3.5,3.5,0,0,0,.346-.07q.68-.188,1.23-.375,1.172-.41,1.2-.41a2.6,2.6,0,0,0,.5-.229,5.3,5.3,0,0,1,.516-.252q.105-.035.252-.094t.17-.064a.157.157,0,0,1,.07.006,1.333,1.333,0,0,1-.012.387,2.5,2.5,0,0,1-.146.316q-.146.293-.311.627t-.2.393a17.576,17.576,0,0,1-.9,1.535l.75.328q.141.07.873.375l.791.328q.047.012.123.3a.888.888,0,0,1,.053.357Zm-2.4-5.7a.475.475,0,0,1-.047.328,1.062,1.062,0,0,1-.586.445,1.881,1.881,0,0,1-.7.141.97.97,0,0,1-.574-.3.881.881,0,0,1-.211-.48l.012-.035a.5.5,0,0,0,.229.059,1.019,1.019,0,0,0,.311,0q.117-.023.68-.188A3.346,3.346,0,0,1,7.4,7.84a.231.231,0,0,1,.246.2Zm8.18,1.512.738,2.66-1.629-.492ZM2.842,18.926l8.133-2.719V4.113L2.842,6.844V18.926Zm14.543-3.715,1.2.363-2.121-7.7-1.172-.363-2.531,6.281,1.2.363.527-1.289,2.473.762ZM11.49,3.938l6.715,2.156V1.641Zm3.645,15.5,1.852.152-.633,1.875-.469-.773a8.687,8.687,0,0,1-3.234,1.266,5.617,5.617,0,0,1-1.066.141H10.6a7.92,7.92,0,0,1-2.338-.457,7.782,7.782,0,0,1-2.15-1,.244.244,0,0,1-.094-.188.227.227,0,0,1,.059-.158.2.2,0,0,1,.152-.064.66.66,0,0,1,.211.088l.357.193q.193.105.24.129a10.383,10.383,0,0,0,1.869.721,6.828,6.828,0,0,0,1.846.287,10,10,0,0,0,1.957-.17,9.658,9.658,0,0,0,1.84-.592q.176-.082.357-.182t.4-.223q.217-.123.334-.193ZM20.385,6.8V19.442l-9.07-2.883q-.164.07-4.395,1.494T2.608,19.477a.212.212,0,0,1-.211-.152.09.09,0,0,0-.012-.035V6.656a.523.523,0,0,1,.047-.117.527.527,0,0,1,.234-.129Q3.908,6,4.412,5.824v-4.5l6.539,2.32q.023,0,1.881-.645t3.7-1.271Q18.381,1.1,18.428,1.1q.234,0,.234.246v4.9Z" transform="translate(-2.385 -1.102)" fill="#fa4a0c"/>
</svg>
