<svg xmlns="http://www.w3.org/2000/svg" width="24.439" height="24.439" viewBox="0 0 24.439 24.439">
  <path id="Icon_metro-my-location" data-name="Icon metro-my-location" d="M16.076,11.632a4.443,4.443,0,1,0,4.443,4.443,4.442,4.442,0,0,0-4.443-4.443Zm9.931,3.333a9.991,9.991,0,0,0-8.82-8.82V3.856H14.965V6.144a9.991,9.991,0,0,0-8.82,8.82H3.856v2.222H6.144a9.991,9.991,0,0,0,8.82,8.82V28.3h2.222V26.007a9.991,9.991,0,0,0,8.82-8.82H28.3V14.965H26.007Zm-9.931,8.887a7.776,7.776,0,1,1,7.776-7.776A7.777,7.777,0,0,1,16.076,23.852Z" transform="translate(-3.856 -3.856)" fill="#fa4a0c"/>
</svg>
