<svg id="Group_12808" data-name="Group 12808" xmlns="http://www.w3.org/2000/svg" xmlns:xlink="http://www.w3.org/1999/xlink" width="110.871" height="100.67" viewBox="0 0 110.871 100.67">
  <defs>
    <clipPath id="clip-path">
      <rect id="Rectangle_19542" data-name="Rectangle 19542" width="110.871" height="100.67" fill="none"/>
    </clipPath>
  </defs>
  <g id="Group_12807" data-name="Group 12807" clip-path="url(#clip-path)">
    <path id="Path_13984" data-name="Path 13984" d="M110.871,27.485c-.387.167-.263.566-.342.847a6.453,6.453,0,0,1-10.918,2.954A63.8,63.8,0,0,0,85.832,20.838,61.525,61.525,0,0,0,51.887,13.1a61.225,61.225,0,0,0-40.629,18.05,6.55,6.55,0,0,1-9.413.179,6.6,6.6,0,0,1,.368-9.5C13.869,10.387,27.714,3.127,43.87.865,68.759-2.62,90.4,4.435,108.6,21.895a9.969,9.969,0,0,1,2.275,4.286Zm-108.9.329a1.873,1.873,0,0,0,.334,1.23A4.806,4.806,0,0,0,9.9,30.059a71.466,71.466,0,0,1,5.823-5.193A64.4,64.4,0,0,1,67.555,12.38,63.323,63.323,0,0,1,100.489,29.77a6.192,6.192,0,0,0,2.149,1.428,4.5,4.5,0,0,0,6.1-3.4,4.339,4.339,0,0,0-1.328-4.607A70.392,70.392,0,0,0,95.1,13.3C79.408,3.381,62.328-.064,44.024,2.575a70.827,70.827,0,0,0-24.912,8.607,72.5,72.5,0,0,0-15.9,12.106,4.239,4.239,0,0,0-1.236,4.526" transform="translate(0 0)" fill="#fff"/>
    <path id="Path_13985" data-name="Path 13985" d="M95.378,77.579a52.338,52.338,0,0,1,36.445,15.54,6.49,6.49,0,0,1-4.78,11.168,7.008,7.008,0,0,1-4.671-2.234A36.353,36.353,0,0,0,109.4,93.587c-15.832-5.811-30.138-3.154-42.736,8.137-1.844,1.652-3.722,2.9-6.274,2.491A6.139,6.139,0,0,1,55.2,99.867a6.211,6.211,0,0,1,1.584-6.694,51.423,51.423,0,0,1,14.1-10.133,54.873,54.873,0,0,1,24.5-5.46m36.573,21.065a4.563,4.563,0,0,0-1.5-4.3c-11.812-11.409-25.883-16.36-42.2-14.593a50.12,50.12,0,0,0-30.025,14.3,4.976,4.976,0,0,0-1.637,4.593,4.365,4.365,0,0,0,3.147,3.644,4.611,4.611,0,0,0,4.814-1.08c.774-.7,1.517-1.446,2.315-2.121A41.211,41.211,0,0,1,100.919,89.4a40.724,40.724,0,0,1,22.807,11.513,4.789,4.789,0,0,0,8.226-2.271" transform="translate(-38.932 -55.095)" fill="#fff"/>
    <path id="Path_13986" data-name="Path 13986" d="M137.7,255.8c-4.949,0-9.9.025-14.846-.008a6.546,6.546,0,0,1-6.827-7.425,6.076,6.076,0,0,1,.963-2.62c5.026-8.019,10.027-16.054,15.1-24.044a6.516,6.516,0,0,1,11.307.049c5.006,7.9,9.951,15.846,14.935,23.764a6.42,6.42,0,0,1,.314,6.885,6.348,6.348,0,0,1-5.99,3.4q-7.477.014-14.954,0m.031-1.744q7.263,0,14.527,0a6.926,6.926,0,0,0,2.245-.288,4.864,4.864,0,0,0,2.388-7.332c-1.577-2.6-3.22-5.15-4.833-7.723-3.342-5.329-6.658-10.674-10.034-15.982-2.078-3.267-6.241-3.406-8.258-.232-5.138,8.086-10.2,16.218-15.288,24.339a4.449,4.449,0,0,0-.563,3.644c.608,2.25,2.435,3.559,5.071,3.568,4.914.016,9.829,0,14.744,0" transform="translate(-82.367 -155.138)" fill="#fff"/>
    <path id="Path_13987" data-name="Path 13987" d="M135.3,155.522c6.216.1,13.378,2.928,19.3,8.762a6.495,6.495,0,1,1-8.993,9.364c-7.452-6.9-17.51-6.9-24.967,0a6.495,6.495,0,1,1-8.905-9.442c5.873-5.695,13.372-8.726,23.562-8.687m-23.913,14.43a2.843,2.843,0,0,0,.47,1.424c1.649,2.911,5.258,3.2,7.927.639a19.263,19.263,0,0,1,22.828-2.852,41.372,41.372,0,0,1,4.824,3.65,4.607,4.607,0,0,0,7.41-2.91,4.5,4.5,0,0,0-1.556-4.565,28.568,28.568,0,0,0-24.778-7.8,27.585,27.585,0,0,0-15.666,7.921,4.44,4.44,0,0,0-1.459,4.492" transform="translate(-77.775 -110.449)" fill="#fff"/>
    <path id="Path_13988" data-name="Path 13988" d="M113.538,40.333a4.5,4.5,0,0,1-6.1,3.4,6.194,6.194,0,0,1-2.149-1.428,64.115,64.115,0,0,0-55.1-17.773A63.243,63.243,0,0,0,20.524,37.4,71.421,71.421,0,0,0,14.7,42.592a4.806,4.806,0,0,1-7.594-1.016,1.872,1.872,0,0,1-.334-1.23,31.478,31.478,0,0,1,4.337-4.351,70,70,0,0,1,13.824-9.6,73.085,73.085,0,0,1,21.542-7.517,77.234,77.234,0,0,1,18.8-1.066A73.678,73.678,0,0,1,98.1,27.921a75.145,75.145,0,0,1,11.6,8.46,23.944,23.944,0,0,1,3.835,3.952" transform="translate(-4.796 -12.532)" fill="#fa4a0c" stroke="#fa4a0c" stroke-width="1"/>
    <path id="Path_13989" data-name="Path 13989" d="M113.036,32.016a23.944,23.944,0,0,0-3.835-3.952A75.144,75.144,0,0,0,97.6,19.6,73.678,73.678,0,0,0,64.776,9.494a77.233,77.233,0,0,0-18.8,1.066,73.085,73.085,0,0,0-21.542,7.517,70,70,0,0,0-13.824,9.6A31.478,31.478,0,0,0,6.27,32.029,4.238,4.238,0,0,1,7.506,27.5,72.5,72.5,0,0,1,23.407,15.4,70.822,70.822,0,0,1,48.319,6.791C66.623,4.152,83.7,7.6,99.4,17.516a70.382,70.382,0,0,1,12.309,9.893,4.339,4.339,0,0,1,1.328,4.607" transform="translate(-4.294 -4.216)" fill="#fa4a0c" stroke="#fa4a0c" stroke-width="1"/>
    <path id="Path_13990" data-name="Path 13990" d="M136.3,110.908a4.789,4.789,0,0,1-8.226,2.271,40.724,40.724,0,0,0-22.807-11.513,41.211,41.211,0,0,0-34.049,9.687c-.8.675-1.541,1.417-2.315,2.121a4.611,4.611,0,0,1-4.814,1.08,4.365,4.365,0,0,1-3.147-3.644A52.341,52.341,0,0,1,77.593,99.291a53.7,53.7,0,0,1,19.881-4.423,53.75,53.75,0,0,1,29.116,8.143,53.285,53.285,0,0,1,9.709,7.9" transform="translate(-43.279 -67.359)" fill="#fa4a0c" stroke="#fa4a0c" stroke-width="1"/>
    <path id="Path_13991" data-name="Path 13991" d="M136.125,103.1a53.286,53.286,0,0,0-9.709-7.9A53.751,53.751,0,0,0,97.3,87.064a53.7,53.7,0,0,0-19.881,4.423,52.342,52.342,0,0,0-16.652,11.619A4.976,4.976,0,0,1,62.4,98.514a50.12,50.12,0,0,1,30.025-14.3c16.313-1.767,30.383,3.184,42.2,14.593a4.563,4.563,0,0,1,1.5,4.3" transform="translate(-43.105 -59.556)" fill="#fa4a0c" stroke="#fa4a0c" stroke-width="1"/>
    <path id="Path_13992" data-name="Path 13992" d="M142.051,258.339c-4.914,0-9.829.011-14.744,0-2.636-.009-4.463-1.317-5.071-3.568a4.45,4.45,0,0,1,.563-3.644c5.083-8.121,10.15-16.252,15.288-24.338,2.017-3.174,6.18-3.035,8.258.232,3.376,5.308,6.692,10.653,10.034,15.982,1.613,2.573,3.256,5.128,4.833,7.723a4.864,4.864,0,0,1-2.388,7.332,6.929,6.929,0,0,1-2.245.288q-7.263,0-14.527,0m-2.56-18.253h-.014c.134,2.529.258,5.059.4,7.588a2.214,2.214,0,0,0,2.188,2.236,2.064,2.064,0,0,0,2.206-2.055c.3-5.093.577-10.188.784-15.286a2.984,2.984,0,0,0-3.18-3.093,2.952,2.952,0,0,0-2.767,3.346c.134,2.421.254,4.842.38,7.263m5.207,13.684a2.651,2.651,0,1,0-2.721,2.649,2.694,2.694,0,0,0,2.721-2.649" transform="translate(-86.692 -159.423)" fill="#fa4a0c"/>
    <path id="Path_13993" data-name="Path 13993" d="M159.438,182.112a4.608,4.608,0,0,1-7.411,2.91,41.345,41.345,0,0,0-4.824-3.65,19.263,19.263,0,0,0-22.828,2.852c-2.669,2.561-6.278,2.271-7.927-.639a2.844,2.844,0,0,1-.47-1.424,29.215,29.215,0,0,1,8.727-6.455,29.874,29.874,0,0,1,34.733,6.408" transform="translate(-82.366 -122.656)" fill="#fa4a0c" stroke="#fa4a0c" stroke-width="1"/>
    <path id="Path_13994" data-name="Path 13994" d="M159.072,173.968a29.739,29.739,0,0,0-43.46.047,4.44,4.44,0,0,1,1.46-4.491,27.585,27.585,0,0,1,15.666-7.921,28.569,28.569,0,0,1,24.778,7.8,4.5,4.5,0,0,1,1.556,4.565" transform="translate(-82 -114.511)" fill="#fa4a0c" stroke="#fa4a0c" stroke-width="1"/>
    <path id="Path_13995" data-name="Path 13995" d="M181.233,252.32c-.126-2.421-.246-4.842-.38-7.263a2.951,2.951,0,0,1,2.767-3.346,2.984,2.984,0,0,1,3.18,3.092c-.207,5.1-.485,10.193-.784,15.286a2.064,2.064,0,0,1-2.206,2.056,2.214,2.214,0,0,1-2.188-2.236c-.147-2.529-.271-5.059-.4-7.588h.014m3.346-.217h.306c0-2.351-.019-4.7.01-7.052.011-.866-.167-1.534-1.167-1.6-.842-.053-1.26.514-1.218,1.646.049,1.3.134,2.6.2,3.9.166,3.4.322,6.8.5,10.194.023.447-.067,1.121.533,1.149.727.034.466-.679.49-1.088.136-2.385.238-4.771.352-7.157" transform="translate(-128.434 -171.657)" fill="#fff"/>
    <path id="Path_13996" data-name="Path 13996" d="M187.157,318.832a2.651,2.651,0,1,1-2.636-2.737,2.686,2.686,0,0,1,2.636,2.737m-2.657-1c-.568.105-.933.4-.9,1.017a.842.842,0,0,0,.911.872.86.86,0,0,0,.9-.991c-.023-.565-.4-.811-.912-.9" transform="translate(-129.151 -224.484)" fill="#fff"/>
  </g>
</svg>
