<svg xmlns="http://www.w3.org/2000/svg" width="80" height="91.428" viewBox="0 0 80 91.428">
  <path id="Icon_awesome-bell" data-name="Icon awesome-bell" d="M40,91.428A11.427,11.427,0,0,0,51.423,80H28.577A11.427,11.427,0,0,0,40,91.428ZM78.462,64.694c-3.45-3.707-9.905-9.284-9.905-27.552A28.2,28.2,0,0,0,45.711,9.436V5.714a5.711,5.711,0,1,0-11.421,0V9.436A28.2,28.2,0,0,0,11.443,37.143c0,18.268-6.455,23.845-9.905,27.552A5.579,5.579,0,0,0,0,68.571a5.719,5.719,0,0,0,5.732,5.714H74.268A5.718,5.718,0,0,0,80,68.571a5.576,5.576,0,0,0-1.537-3.877Z" transform="translate(0)" fill="#fa4a0c"/>
</svg>
