<svg xmlns="http://www.w3.org/2000/svg" width="18" height="22" viewBox="0 0 18 22">
  <g id="Group_12484" data-name="Group 12484" transform="translate(572.656 -224.887)">
    <path id="Path_10703" data-name="Path 10703" d="M-557.94,246.887h-11.442a.679.679,0,0,0-.12-.041,3.581,3.581,0,0,1-3.153-3.6c.012-.524.078-1.048.12-1.572q.207-2.558.417-5.116c.155-1.882.32-3.765.468-5.647a1.6,1.6,0,0,1,1.719-1.551l1.883,0c0,.946-.005,1.891,0,2.837a.651.651,0,0,0,.663.661.65.65,0,0,0,.663-.661c0-.946,0-1.891,0-2.837h6.127c0,.931-.005,1.862,0,2.793a.657.657,0,0,0,.663.7.658.658,0,0,0,.665-.7c0-.931,0-1.863,0-2.794.643,0,1.285,0,1.927,0a1.591,1.591,0,0,1,1.673,1.529c.084,1.133.183,2.264.277,3.4q.191,2.293.382,4.585c.113,1.365.208,2.733.342,4.1a3.563,3.563,0,0,1-2.34,3.666C-557.311,246.742-557.63,246.8-557.94,246.887Zm-6.64-8.131c-.37-.36-.729-.716-1.1-1.064a.677.677,0,0,0-.983-.032.618.618,0,0,0,.041.931q.762.745,1.535,1.477a.679.679,0,0,0,1.018,0c.292-.271.576-.551.863-.827.83-.8,1.662-1.594,2.49-2.4a.623.623,0,0,0,.049-.947.692.692,0,0,0-.986.039c-.159.148-.314.3-.47.452Z" fill="#c3c3c3"/>
    <path id="Path_10705" data-name="Path 10705" d="M-566.724,229.354c0,.983.006,1.966,0,2.949a.663.663,0,0,1-.663.687.664.664,0,0,1-.663-.687c-.005-.983,0-1.966,0-2.949l-.006.007h1.336Z" transform="translate(0 -0.162)" fill="#c3c3c3" stroke="#c3c3c3" stroke-width="0.2"/>
    <path id="Path_10706" data-name="Path 10706" d="M-559.273,229.354q0,1.452,0,2.9a.673.673,0,0,1-.665.731.672.672,0,0,1-.663-.732c0-.968,0-1.936,0-2.9l-.007.007h1.337Z" transform="translate(0 -0.162)" fill="#c3c3c3" stroke="#c3c3c3" stroke-width="0.2"/>
    <path id="Path_10707" data-name="Path 10707" d="M-559.267,229.361H-560.6a3.064,3.064,0,0,0-3.056-3.151,3.065,3.065,0,0,0-3.058,3.151h-1.336A4.423,4.423,0,0,1-566.58,226a4.389,4.389,0,0,1,6.079.229A4.452,4.452,0,0,1-559.267,229.361Z" fill="#c3c3c3"/>
    <rect id="Rectangle_19370" data-name="Rectangle 19370" width="10" height="7" transform="translate(-568.656 234.445)" fill="#c3c3c3"/>
  </g>
</svg>
