<svg xmlns="http://www.w3.org/2000/svg" width="110.184" height="70.459" viewBox="0 0 110.184 70.459">
  <g id="Group_464" data-name="Group 464" transform="translate(-114.121 -209.608)">
    <path id="Path_4010" data-name="Path 4010" d="M117.247,344.577a4.345,4.345,0,0,1-3.087-4.174q-.018-17.255.02-34.51,37.926.006,75.853.01c.185,0,.369-.023.554-.035a19.912,19.912,0,0,0,14.229,6.7q.007,13.4.012,26.794c0,3.8-1.595,5.387-5.409,5.387q-39.982,0-79.965-.007C118.718,344.742,117.982,344.634,117.247,344.577Zm64.459-30.349c-3.427-2.68-8.02-2.158-10.4,1.181a7.017,7.017,0,0,0,1.815,10.006c2.961,1.942,5.86,1.5,8.643-.468.391.24.773.5,1.176.718a6.772,6.772,0,0,0,7.684-.413,7.065,7.065,0,0,0-2.567-12.588A7.265,7.265,0,0,0,181.706,314.228Zm-40.146,10.2c4.86,0,9.721-.025,14.581.019,1.066.01,1.479-.287,1.442-1.411-.077-2.312-.066-4.629,0-6.942.028-1.031-.311-1.354-1.347-1.351q-14.789.049-29.578,0c-1.075,0-1.343.394-1.319,1.384.054,2.221.082,4.446-.009,6.664-.052,1.28.377,1.679,1.653,1.663C131.838,324.392,136.7,324.428,141.559,324.428Zm-9.064,11.46c1.984,0,3.97-.057,5.951.022,1.161.047,1.244-.553,1.248-1.449s-.174-1.355-1.217-1.342c-3.967.049-7.936.055-11.9,0-1.156-.017-1.242.554-1.247,1.453s.174,1.372,1.217,1.337C128.527,335.842,130.512,335.888,132.5,335.889Zm53.922,0c2.037,0,4.076-.039,6.111.016,1.034.028,1.1-.547,1.087-1.322s.072-1.47-1.093-1.457q-6.042.066-12.085,0c-1.1-.013-1.171.552-1.159,1.392.012.823.054,1.433,1.166,1.394C182.434,335.838,184.427,335.888,186.418,335.887Zm-35.826-2.746c-2.03,0-4.062.047-6.089-.018-1.113-.036-1.137.58-1.145,1.4-.009.843.08,1.391,1.166,1.378q5.951-.074,11.9,0c1.106.013,1.142-.577,1.15-1.4.008-.846-.088-1.413-1.172-1.376C154.469,333.188,152.529,333.141,150.591,333.141Zm17.88,2.738v.008c1.986,0,3.974-.047,5.958.019,1.067.035,1.205-.5,1.181-1.359-.022-.791.022-1.437-1.117-1.423q-5.957.072-11.917,0c-1.052-.013-1.19.484-1.2,1.355-.013.94.154,1.466,1.277,1.422C164.589,335.823,166.531,335.879,168.471,335.879Z" transform="translate(-0.024 -64.683)" fill="#fa4a0c"/>
    <path id="Path_4011" data-name="Path 4011" d="M352,247.884a19.912,19.912,0,0,1-14.229-6.7,20.21,20.21,0,0,1-4.577-12.758,21.376,21.376,0,0,1,2.309-8.857c3.691-6.178,9.082-9.795,16.306-9.957,7.861-.176,13.724,3.491,17.577,10.35.226.4.443.811.664,1.217a19.8,19.8,0,0,1,1.2,10.477C369.511,241.389,362.065,247.607,352,247.884Zm-2.412-19.352c-.146.167-.314.38-.5.571-.814.821-1.633,1.636-2.451,2.453-2.53,2.53-2.511,2.511.012,4.972.59.575.946.675,1.548.027,1.194-1.287,2.526-2.449,3.7-3.755.805-.9,1.354-1.071,2.231-.051,1.142,1.328,2.487,2.48,3.691,3.759.566.6.925.64,1.554.031,2.564-2.476,2.58-2.447.076-4.969-1.005-1.013-2.714-2.02-2.771-3.1-.065-1.238,1.781-2.156,2.8-3.2,2.471-2.527,2.473-2.491-.14-4.973-.56-.531-.9-.595-1.45-.012-1.37,1.44-2.822,2.8-4.2,4.238-.505.528-.837.535-1.328,0-.777-.854-1.624-1.645-2.441-2.462-2.6-2.6-2.582-2.583-5.071.072-.557.594-.5.934.041,1.456,1.4,1.344,2.758,2.734,4.125,4.114C349.234,227.918,349.537,228.092,349.585,228.532Z" transform="translate(-147.205 0)" fill="#fa4a0c" opacity="0.87"/>
    <path id="Path_4012" data-name="Path 4012" d="M186.056,266.978a20.209,20.209,0,0,0,4.577,12.758c-.185.012-.369.035-.554.035q-37.926,0-75.853-.01,0-6.389,0-12.777Z" transform="translate(-0.071 -38.55)" fill="#fca485"/>
    <path id="Path_4013" data-name="Path 4013" d="M185.986,248.763l-71.83.005c-.01-1.479-.055-2.96-.023-4.438a4.394,4.394,0,0,1,4.375-4.452c.231-.011.463-.007.694-.007q33.923,0,67.845,0c.416,0,.832.022,1.248.033A21.374,21.374,0,0,0,185.986,248.763Z" transform="translate(0 -20.336)" fill="#fa4a0c"/>
    <path id="Path_4014" data-name="Path 4014" d="M315.283,327.738a7.265,7.265,0,0,1,6.355-1.564,7.062,7.062,0,1,1-5.117,13c-.4-.218-.784-.478-1.175-.717C312.164,334.545,312.146,331.5,315.283,327.738Z" transform="translate(-133.601 -78.192)" fill="#fca485"/>
  </g>
</svg>
