<svg xmlns="http://www.w3.org/2000/svg" width="19" height="18" viewBox="0 0 19 18">
  <g id="Group_12485" data-name="Group 12485" transform="translate(-30 -340)">
    <g id="Icon_ionic-md-qr-scanner" data-name="Icon ionic-md-qr-scanner" transform="translate(26.625 335.5)">
      <path id="Path_10713" data-name="Path 10713" d="M5.63,7.328A.561.561,0,0,1,6.2,6.755H9.389V4.5H6.25A2.853,2.853,0,0,0,3.375,7.328v3.185H5.63Z" fill="#fff"/>
      <path id="Path_10714" data-name="Path 10714" d="M26.8,4.5H23.625V6.755h3.157a.585.585,0,0,1,.6.573v3.185h2.255V7.328A2.824,2.824,0,0,0,26.8,4.5Z" transform="translate(-7.264)" fill="#fff"/>
      <path id="Path_10715" data-name="Path 10715" d="M27.383,25.638a.561.561,0,0,1-.573.573H23.625v2.3H26.81a2.853,2.853,0,0,0,2.828-2.875V22.5H27.383Z" transform="translate(-7.264 -6.014)" fill="#fff"/>
      <path id="Path_10716" data-name="Path 10716" d="M6.2,26.211a.561.561,0,0,1-.573-.573V22.5H3.375v3.138A2.893,2.893,0,0,0,6.25,28.514H9.389v-2.3Z" transform="translate(0 -6.014)" fill="#fff"/>
    </g>
    <path id="Icon_metro-qrcode" data-name="Icon metro-qrcode" d="M5.721,2.558H3.2v2.52h2.52Zm.63-.63v3.78H2.571V1.928Zm-2.52,1.26h1.26v1.26H3.831Zm8.19-.63H9.5v2.52h2.52V2.558Zm.63-.63v3.78H8.871V1.928h3.78Zm-2.52,1.26h1.26v1.26h-1.26Zm-4.41,5.67H3.2v2.52h2.52Zm.63-.63v3.78H2.571V8.228Zm-2.52,1.26h1.26v1.26H3.831Zm3.15-7.56h.63v.63h-.63Zm.63.63h.63v.63h-.63Zm-.63.63h.63v.63h-.63Zm.63.63h.63v.63h-.63Zm-.63.63h.63v.63h-.63Zm.63.63h.63v.63h-.63Zm-.63.63h.63v.63h-.63Zm0,1.26h.63V7.6h-.63Zm.63.63h.63v.63h-.63Zm-.63.63h.63v.63h-.63Zm.63.63h.63v.63h-.63Zm-.63.63h.63v.63h-.63Zm.63.63h.63v.63h-.63Zm-.63.63h.63v.63h-.63Zm.63.63h.63v.63h-.63Zm4.41-4.41h.63V7.6h-.63Zm-8.82,0h.63V7.6H3.2Zm.63-.63h.63v.63h-.63Zm-1.26,0H3.2v.63h-.63Zm2.52,0h.63v.63h-.63Zm.63.63h.63V7.6h-.63Zm.63-.63h.63v.63h-.63Zm1.89.63h.63V7.6h-.63Zm.63-.63H9.5v.63h-.63Zm.63.63h.63V7.6H9.5Zm.63-.63h.63v.63h-.63Zm.63.63h.63V7.6h-.63Zm.63-.63h.63v.63h-.63Zm.63,1.89h.63v.63h-.63Zm-3.78,0h.63v.63h-.63Zm.63-.63H9.5v.63h-.63Zm.63.63h.63v.63H9.5Zm1.26,0h.63v.63h-.63Zm.63-.63h.63v.63h-.63Zm.63,1.89h.63v.63h-.63Zm-3.78,0h.63v.63h-.63Zm.63-.63H9.5v.63h-.63Zm1.26,0h.63v.63h-.63Zm.63.63h.63v.63h-.63Zm.63-.63h.63v.63h-.63Zm.63,1.89h.63v.63h-.63Zm-3.15-.63H9.5v.63h-.63Zm.63.63h.63v.63H9.5Zm.63-.63h.63v.63h-.63Zm.63.63h.63v.63h-.63Zm-1.89.63H9.5v.63h-.63Zm1.26,0h.63v.63h-.63Zm1.26,0h.63v.63h-.63Z" transform="translate(31.889 342.031)" fill="#fff"/>
  </g>
</svg>
