<svg xmlns="http://www.w3.org/2000/svg" width="18" height="12" viewBox="0 0 18 12">
  <path id="Icon_payment-cash" data-name="Icon payment-cash" d="M21.225,8.771V19.578a.769.769,0,0,1-.176.421.575.575,0,0,1-.422.176H3.822A.573.573,0,0,1,3.4,20a.766.766,0,0,1-.176-.421V8.771A.768.768,0,0,1,3.4,8.35a.576.576,0,0,1,.422-.175h16.8a.577.577,0,0,1,.422.175.772.772,0,0,1,.176.421Zm-1.2,7.79V11.789a2.3,2.3,0,0,1-1.688-.7,2.334,2.334,0,0,1-.7-1.719H6.811a2.335,2.335,0,0,1-.7,1.719,2.3,2.3,0,0,1-1.688.7v4.772a2.306,2.306,0,0,1,1.688.7,2.337,2.337,0,0,1,.7,1.719H17.639a2.335,2.335,0,0,1,.7-1.719,2.3,2.3,0,0,1,1.688-.7Zm-4.816-2.386a6.138,6.138,0,0,1-.176,1.333,4.492,4.492,0,0,1-.562,1.263,3.052,3.052,0,0,1-.949.947,2.586,2.586,0,0,1-2.6,0,3.042,3.042,0,0,1-.949-.947,4.481,4.481,0,0,1-.562-1.263,6.109,6.109,0,0,1-.176-1.333,6.114,6.114,0,0,1,.176-1.333,4.478,4.478,0,0,1,.562-1.263,3.052,3.052,0,0,1,.949-.947,2.586,2.586,0,0,1,2.6,0,3.068,3.068,0,0,1,.949.947,4.494,4.494,0,0,1,.562,1.263,6.132,6.132,0,0,1,.176,1.333Zm-4.781,2.386h3.586v-.877h-1.2V11.473H11.768l-1.406,1.3.738.737a5.749,5.749,0,0,0,.492-.526h.035v2.7h-1.2v.877Z" transform="translate(-3.225 -8.175)" fill="#fa4a0c"/>
</svg>
