<svg xmlns="http://www.w3.org/2000/svg" width="18" height="15.105" viewBox="0 0 18 15.105">
  <g id="Group_12464" data-name="Group 12464" transform="translate(197.777 -216.274)">
    <path id="Path_10734" data-name="Path 10734" d="M-180.777,223.724a1.923,1.923,0,0,1-.624,1.008c-.9.892-1.8,1.8-2.7,2.693a1.324,1.324,0,0,1-1.678.268,1.585,1.585,0,0,1-.33-.259q-1.445-1.437-2.882-2.882a1.327,1.327,0,0,1-.1-1.892,1.31,1.31,0,0,1,1.777-.164c.279.231.525.5.786.753a.408.408,0,0,0,.181.113,8,8,0,0,0-.178-.863,4.807,4.807,0,0,0-3.769-3.462,4.863,4.863,0,0,0-5.058,2.2,4.856,4.856,0,0,0,1.014,6.346,4.75,4.75,0,0,0,3.014,1.13,1.486,1.486,0,0,1,.892.268,1.324,1.324,0,0,1,.469,1.5,1.316,1.316,0,0,1-1.275.9,7.354,7.354,0,0,1-4.339-1.394,7.306,7.306,0,0,1-2.821-3.834,7.314,7.314,0,0,1,1.083-6.752,7.293,7.293,0,0,1,4.559-2.958,7.321,7.321,0,0,1,5.193.795,7.453,7.453,0,0,1,3.385,3.893,6.93,6.93,0,0,1,.445,1.818c.01.087.023.174.04.3.148-.147.279-.274.408-.4a1.849,1.849,0,0,1,.792-.559,1.324,1.324,0,0,1,1.656.91c.018.061.038.122.057.183Z" transform="translate(1)" fill="#fa4a0c"/>
  </g>
</svg>
