<svg xmlns="http://www.w3.org/2000/svg" width="20" height="14" viewBox="0 0 20 14">
  <path id="Path_10643" data-name="Path 10643" d="M-223.647,189.261h-.319l-14.195,0a2.217,2.217,0,0,1-.574-.049,1.107,1.107,0,0,1-.787-1.251,1.122,1.122,0,0,1,1-1.006,3.961,3.961,0,0,1,.442-.015h14.511c-.11-.117-.173-.187-.238-.253q-1.791-1.764-3.586-3.526a1.156,1.156,0,0,1-.4-1.1,1.109,1.109,0,0,1,.795-.9,1.149,1.149,0,0,1,1.2.277c.553.535,1.1,1.079,1.645,1.619q2.081,2.055,4.164,4.112a1.168,1.168,0,0,1,0,1.857c-1.915,1.892-3.837,3.777-5.742,5.68a1.2,1.2,0,0,1-2.049-.524,1.113,1.113,0,0,1,.373-1.13c1.2-1.176,2.386-2.356,3.584-3.528a1.015,1.015,0,0,1,.266-.141Z" transform="translate(239.53 -181.099)" fill="#fa4a0c"/>
</svg>
