<svg xmlns="http://www.w3.org/2000/svg" width="12" height="12.004" viewBox="0 0 12 12.004">
  <g id="Group_12112" data-name="Group 12112" transform="translate(-386.497 -249.589)">
    <path id="Path_10507" data-name="Path 10507" d="M398.5,251.065c-.062.07-.121.142-.186.208q-.65.652-1.3,1.3a.656.656,0,0,1-1.049,0l-.083-.08-2.535,2.539-.28-.293,2.547-2.544a2.047,2.047,0,0,1-.161-.136.635.635,0,0,1,0-.93c.24-.246.485-.487.728-.73.221-.22.441-.442.663-.661.055-.055.117-.1.175-.153h.117c.2.12.212.246.048.411l-1.383,1.384a.8.8,0,0,0-.078.086.2.2,0,0,0,.006.267c.048.055.1.1.166.172.036-.044.061-.079.091-.109l1.482-1.483a.859.859,0,0,1,.094-.087.209.209,0,0,1,.293.292.866.866,0,0,1-.088.094l-1.491,1.491c-.029.029-.057.06-.084.089.234.276.316.281.559.037l1.334-1.333c.163-.163.289-.147.411.048Z" fill="#fa4a0c"/>
    <path id="Path_10508" data-name="Path 10508" d="M392.223,260.335l-1.191-.208c.056-.154.106-.275.145-.4a.21.21,0,0,0-.228-.295.226.226,0,0,0-.177.167c-.041.109-.081.219-.123.329,0,.006-.01.011-.036.041l-1.023-.6c.1-.123.185-.22.265-.319a.215.215,0,1,0-.323-.274c-.079.091-.156.185-.235.277a.292.292,0,0,1-.046.027l-.764-.907c.145-.085.262-.152.377-.223a.18.18,0,0,0,.1-.216.334.334,0,0,0-.156-.167.269.269,0,0,0-.185.036c-.108.052-.21.119-.326.186a4.468,4.468,0,0,1-.412-1.124c.129-.024.255-.045.381-.071a.214.214,0,0,0,.2-.253.221.221,0,0,0-.281-.162c-.119.02-.237.042-.368.065a4.292,4.292,0,0,1,0-1.2c.143.024.276.053.41.068a.209.209,0,0,0,.246-.264.224.224,0,0,0-.2-.156l-.385-.069a4.62,4.62,0,0,1,.837-1.791c.034.032.063.057.09.084l2.5,2.5a.369.369,0,0,1,0,.446c-.075.074-.152.146-.224.223a.637.637,0,1,0,.9.9.716.716,0,0,0,.131-.133c.1-.167.265-.163.427-.161a.163.163,0,0,1,.086.05c.082.078.159.161.241.239a.64.64,0,0,0,.915,0,.634.634,0,0,0-.017-.9.692.692,0,0,0-.125-.123.41.41,0,0,1-.164-.425.131.131,0,0,1,.04-.078q1.3-1.3,2.6-2.6a.2.2,0,0,1,.031-.017,4.64,4.64,0,0,1,.83,1.786l-.36.067c-.167.03-.253.124-.23.251s.138.2.309.166l.37-.066v1.2l-.384-.066a.219.219,0,0,0-.283.157c-.027.132.047.229.2.259.121.024.244.046.4.075l-.412,1.133c-.135-.078-.241-.14-.349-.2a.22.22,0,0,0-.326.059c-.064.112-.021.23.115.311l.3.179s0,.006.032.032l-.766.913c-.1-.123-.184-.221-.267-.318a.22.22,0,0,0-.327-.053.214.214,0,0,0,0,.322c.081.1.165.2.268.322l-1.04.606c-.06-.159-.105-.291-.16-.419a.207.207,0,0,0-.27-.121.21.21,0,0,0-.123.259,1.245,1.245,0,0,0,.04.122c.032.091.065.182.1.279a4.311,4.311,0,0,1-1.183.2c0-.142.005-.274,0-.4a.2.2,0,0,0-.248-.211.211.211,0,0,0-.173.23C392.219,260.043,392.223,260.167,392.223,260.335Z" fill="#fa4a0c"/>
    <path id="Path_10509" data-name="Path 10509" d="M396.908,253.211l.644-.553a5.93,5.93,0,1,1-10.11-.2,1.473,1.473,0,0,0,.747.381,5.037,5.037,0,0,0-.538,4.533,4.884,4.884,0,0,0,1.906,2.471,5.09,5.09,0,0,0,7.351-6.63Z" fill="#fa4a0c"/>
    <path id="Path_10510" data-name="Path 10510" d="M392.223,250.991c0,.145-.005.274,0,.4a.211.211,0,1,0,.421-.006c0-.128,0-.256,0-.4a4.594,4.594,0,0,1,1.183.206c-.045.124-.088.24-.129.356a.219.219,0,0,0,.107.305c.124.048.233-.011.29-.158.045-.116.087-.232.142-.378l1.024.589c-.047.052-.071.081-.1.108l-2.5,2.5a.354.354,0,0,1-.454,0l-2.511-2.51c-.022-.022-.047-.041-.083-.071a4.725,4.725,0,0,1,1.023-.6c.045.12.086.237.13.353.057.149.164.209.289.164s.162-.16.108-.313c-.039-.111-.079-.221-.118-.331l.007-.022A4.4,4.4,0,0,1,392.223,250.991Z" fill="#fa4a0c"/>
    <path id="Path_10511" data-name="Path 10511" d="M389.622,251.4a1.439,1.439,0,0,0-.38-.739,5.858,5.858,0,0,1,6.186-.124l-.549.639A5.125,5.125,0,0,0,389.622,251.4Z" fill="#fa4a0c"/>
    <path id="Path_10512" data-name="Path 10512" d="M386.981,250.934a.672.672,0,0,1,.831-.706,2.028,2.028,0,0,1,1.377.692,1.048,1.048,0,0,1-1.313,1.6,1.69,1.69,0,0,1-.734-.951A5.811,5.811,0,0,1,386.981,250.934Z" fill="#fa4a0c"/>
    <path id="Path_10513" data-name="Path 10513" d="M391.8,254.759l-.265.252-2.368-2.371.266-.253Z" fill="#fa4a0c"/>
    <path id="Path_10514" data-name="Path 10514" d="M393.07,255.664a.636.636,0,1,1-.617-.648A.64.64,0,0,1,393.07,255.664Z" fill="#fa4a0c"/>
    <path id="Path_10515" data-name="Path 10515" d="M391.525,256.27l.288.284a1.809,1.809,0,0,1-.167.175.207.207,0,0,1-.288-.292A2.175,2.175,0,0,1,391.525,256.27Z" fill="#fa4a0c"/>
    <path id="Path_10516" data-name="Path 10516" d="M393.05,256.561l.3-.292c.064.078.224.143.188.314a.263.263,0,0,1-.154.165C393.206,256.8,393.139,256.629,393.05,256.561Z" fill="#fa4a0c"/>
  </g>
</svg>
