<svg xmlns="http://www.w3.org/2000/svg" width="18" height="14.061" viewBox="0 0 18 14.061">
  <g id="Group_12462" data-name="Group 12462" transform="translate(756.824 -405.874)">
    <path id="Path_3752" data-name="Path 3752" d="M-738.824,418.837c-.022.057-.046.114-.064.172a1.149,1.149,0,0,1-1.048.926h-15.783a1.268,1.268,0,0,1-1.1-1.385V407.259a1.268,1.268,0,0,1,1.1-1.385h15.783a1.151,1.151,0,0,1,1.049.926c.017.059.041.115.063.172Zm-16.86-7.334v7.012h15.721V411.5Zm-.006-2.83h15.727v-1.381H-755.69Z" transform="translate(0 0)" fill="#fa4a0c"/>
    <path id="Path_3753" data-name="Path 3753" d="M-743.892,411.919a1.7,1.7,0,0,1,2.4.153,1.693,1.693,0,0,1-.05,2.285,1.7,1.7,0,0,1-2.348.093,1.681,1.681,0,0,1-1.513.384,1.639,1.639,0,0,1-.985-.656,1.7,1.7,0,0,1,.185-2.2A1.7,1.7,0,0,1-743.892,411.919Z" transform="translate(0 2.009)" fill="#fa4a0c"/>
    <path id="Path_3754" data-name="Path 3754" d="M-752.332,413.761v1.1h-2.228v-1.1Z" transform="translate(0 2.185)" fill="#fa4a0c"/>
    <path id="Path_3755" data-name="Path 3755" d="M-748.957,413.761v1.1h-2.228v-1.1Z" transform="translate(0 2.185)" fill="#fa4a0c"/>
  </g>
</svg>
