<svg xmlns="http://www.w3.org/2000/svg" width="18" height="18" viewBox="0 0 18 18">
  <g id="Group_11486" data-name="Group 11486" transform="translate(11)">
    <path id="wallet_2" d="M112-408.181v-10.338a.492.492,0,0,0,.026-.067,1.594,1.594,0,0,1,1.667-1.363c.5,0,1,0,1.494,0a.584.584,0,0,0,.279-.076q1.965-1.175,3.924-2.359,1.741-1.048,3.481-2.1a1.566,1.566,0,0,1,1.092-.247,1.592,1.592,0,0,1,1.177.863q1.042,1.888,2.086,3.775a.238.238,0,0,0,.246.148c.287-.01.574,0,.861,0,.408,0,.611.215.611.646q0,1.778,0,3.556v.2c.186,0,.344,0,.5,0a.539.539,0,0,1,.551.578q0,1.622,0,3.244a.538.538,0,0,1-.553.576c-.162,0-.324,0-.5,0v.217q0,1.75,0,3.5c0,.482-.19.681-.647.681H118.157q-2.276,0-4.552,0a1.588,1.588,0,0,1-1.525-1.131C112.049-407.981,112.026-408.081,112-408.181Zm1.068-8.459v6.58h14.811v-1.09h-2.012a2.4,2.4,0,0,1-.316-.012,2.186,2.186,0,0,1-1.876-2.343,2.16,2.16,0,0,1,2.141-2.043c.627,0,1.254,0,1.881,0h.185v-1.091Zm-.012-1.122h14.826v-1.086H113.729c-.059,0-.117,0-.176,0a.539.539,0,0,0-.5.523C113.049-418.141,113.056-417.958,113.056-417.762Zm14.83,8.824H113.055c0,.153,0,.293,0,.433,0,.443.2.654.62.654h14.21Zm1.05-5.5c-.035,0-.063-.007-.091-.007-1.025,0-2.05,0-3.075,0a1.026,1.026,0,0,0-.326.06,1.1,1.1,0,0,0-.709,1.189,1.066,1.066,0,0,0,1.029.945c1.025.006,2.05,0,3.075,0a.655.655,0,0,0,.1-.015Zm-4.479-8.456c-.069-.126-.131-.242-.195-.357-.238-.428-.489-.5-.9-.253l-5.7,3.43c-.052.031-.1.068-.195.131h.2c.58,0,1.159,0,1.739,0a.583.583,0,0,0,.278-.079q1.72-1.028,3.435-2.065Zm-2.764,2.936h4.392l-1.1-1.983Z" transform="translate(-123 424.75)" fill="#fff"/>
  </g>
</svg>
