<svg xmlns="http://www.w3.org/2000/svg" width="18.681" height="18.681" viewBox="0 0 18.681 18.681">
  <path id="Icon_material-shopping-cart" data-name="Icon material-shopping-cart" d="M7.1,17.945a1.868,1.868,0,1,0,1.868,1.868A1.866,1.866,0,0,0,7.1,17.945ZM1.5,3V4.868H3.368l3.363,7.089L5.47,14.246a1.806,1.806,0,0,0-.234.9A1.874,1.874,0,0,0,7.1,17.01H18.313V15.142H7.5a.231.231,0,0,1-.234-.234l.028-.112.841-1.522H15.09a1.859,1.859,0,0,0,1.635-.962L20.069,6.25a.913.913,0,0,0,.112-.448.937.937,0,0,0-.934-.934H5.432L4.554,3ZM16.445,17.945a1.868,1.868,0,1,0,1.868,1.868A1.866,1.866,0,0,0,16.445,17.945Z" transform="translate(-1.5 -3)" fill="#f9be15"/>
</svg>
