<svg xmlns="http://www.w3.org/2000/svg" width="8" height="10" viewBox="0 0 8 10">
  <g id="saved_location" transform="translate(-3)">
    <path id="Path_10387" data-name="Path 10387" d="M7,0A3.9,3.9,0,0,1,9.828,1.22,4.228,4.228,0,0,1,11,4.167a4.914,4.914,0,0,1-.611,2.276,8.8,8.8,0,0,1-1.3,1.812A12.271,12.271,0,0,1,7.222,9.93a.387.387,0,0,1-.444,0A12.271,12.271,0,0,1,4.91,8.255a8.8,8.8,0,0,1-1.3-1.812A4.914,4.914,0,0,1,3,4.167,4.228,4.228,0,0,1,4.172,1.22,3.9,3.9,0,0,1,7,0ZM7,9.071c.759-.586,3.2-2.649,3.2-4.9A3.272,3.272,0,0,0,7,.833,3.272,3.272,0,0,0,3.8,4.167C3.8,6.422,6.241,8.485,7,9.071Z" transform="translate(0 0)" fill="#fa4a0c"/>
    <path id="Path_10388" data-name="Path 10388" d="M13.694,9A1.694,1.694,0,1,1,12,10.694,1.7,1.7,0,0,1,13.694,9Zm0,2.541a.847.847,0,1,0-.847-.847A.848.848,0,0,0,13.694,11.541Z" transform="translate(-6.694 -6.52)" fill="#fa4a0c"/>
  </g>
</svg>
