<svg id="Icon_feather-clock" data-name="Icon feather-clock" xmlns="http://www.w3.org/2000/svg" width="16" height="16" viewBox="0 0 16 16">
  <path id="Path_10371" data-name="Path 10371" d="M9.5,1.5a8,8,0,0,1,3.114,15.371A8,8,0,0,1,6.386,2.129,7.95,7.95,0,0,1,9.5,1.5Zm0,14.545A6.545,6.545,0,1,0,2.955,9.5,6.553,6.553,0,0,0,9.5,16.045Z" transform="translate(-1.5 -1.5)" fill="#fa4a0c"/>
  <path id="Icon_awesome-walking" data-name="Icon awesome-walking" d="M4.593,2.081a1.05,1.05,0,0,0,1.06-1.041,1.06,1.06,0,0,0-2.119,0A1.05,1.05,0,0,0,4.593,2.081ZM6.679,5.314l-.514-.256L5.95,4.421A2.4,2.4,0,0,0,3.694,2.775a4.923,4.923,0,0,0-2.059.546,2.091,2.091,0,0,0-1.1,1L.39,4.618a.69.69,0,0,0,.313.93.7.7,0,0,0,.938-.31l.148-.295a.7.7,0,0,1,.364-.334l.592-.234L2.409,5.691a1.375,1.375,0,0,0,.329,1.275L4.061,8.384a1.392,1.392,0,0,1,.329.6l.4,1.589a.709.709,0,0,0,.856.505.694.694,0,0,0,.514-.841l-.49-1.93a1.379,1.379,0,0,0-.329-.6l-1-1.078.38-1.489.121.358a1.39,1.39,0,0,0,.7.8l.514.256a.695.695,0,1,0,.622-1.242ZM1.626,8.364a1.344,1.344,0,0,1-.313.466L.209,9.917a.686.686,0,0,0,0,.982.714.714,0,0,0,1,0L2.518,9.611a1.407,1.407,0,0,0,.313-.466l.3-.733C1.908,7.1,2.275,7.506,2.083,7.248L1.626,8.364Z" transform="translate(4.729 2.595)" fill="#fa4a0c"/>
</svg>
